<?xml version="1.0" standalone="no"?>
<!DOCTYPE svg PUBLIC "-//W3C//DTD SVG 1.1//EN" "http://www.w3.org/Graphics/SVG/1.1/DTD/svg11.dtd" >
<svg xmlns="http://www.w3.org/2000/svg" xmlns:xlink="http://www.w3.org/1999/xlink" version="1.1">
<metadata>
Created by FontForge 20200427 at Tue Sep  9 22:37:25 2014
 By www
Copyright (c) 2002 Typodermic Fonts. This font is not freely distributable. Visit typodermic.com for more info.
</metadata>
<defs>
<font id="NeuropolXW00-Expanded" horiz-adv-x="935" >
  <font-face 
    font-family="NeuropolXW00-Expanded"
    font-weight="400"
    font-stretch="expanded"
    units-per-em="1000"
    panose-1="2 0 5 5 5 0 0 2 0 4"
    ascent="800"
    descent="-200"
    x-height="479"
    cap-height="631"
    bbox="-293 -201 2034 888"
    underline-thickness="50"
    underline-position="-175"
    unicode-range="U+0020-2212"
  />
<missing-glyph horiz-adv-x="322" 
d="M40 0v240q-9 16 -14.5 33.5t-5.5 37.5t5.5 37.5t14.5 32.5v246h243v-246q9 -15 14.5 -32.5t5.5 -37.5t-5.5 -37.5t-14.5 -33.5v-240h-243zM247 591h-172v-169q17 15 39.5 22.5t46.5 7.5q51 0 86 -30v169zM247 199q-35 -29 -86 -29q-24 0 -46.5 7.5t-39.5 21.5v-163h172
v163zM267 311q0 45 -30.5 75t-75.5 30t-75 -30t-30 -75t30 -75t75 -30t75.5 30t30.5 75zM218 246q-29 12 -57 12q-26 0 -53 -12l-10 22q17 6 32 9.5t31 3.5q17 0 33 -3.5t33 -9.5zM111 329v50h23v-50h-23zM189 329v50h23v-50h-23z" />
    <glyph glyph-name="copyright" unicode="&#x28;C&#x29;" horiz-adv-x="730" 
d="M323 485q-53 0 -53 -42v-108q0 -42 54 -42h119q23 0 23 -24t-23 -24h-125q-94 0 -94 89v111q0 89 96 89h124q22 0 22 -24q0 -25 -22 -25h-121zM613 395q0 49 -19.5 94.5t-53.5 80t-80 55t-98 20.5t-97.5 -20.5t-79.5 -55t-53.5 -80t-19.5 -94.5q0 -52 19.5 -98
t53.5 -80.5t79.5 -54.5t97.5 -20t97.5 20t79.5 54.5t54 80.5t20 98zM664 395q0 -62 -24 -117t-65 -96t-96 -65t-117 -24q-63 0 -117 24t-94.5 65.5t-63.5 96t-23 116.5q0 61 23.5 115t64 95t94.5 65t116 24q61 0 116 -24t96 -65t65.5 -95t24.5 -115z" />
    <glyph glyph-name="registered" unicode="&#x28;R&#x29;" horiz-adv-x="730" 
d="M456 483q0 31 -59 31h-137v-101h145q51 0 51 30v40zM503 443q0 -73 -105 -73h-49l147 -95q12 -5 12 -16q0 -9 -7 -16.5t-21 -7.5q-2 0 -4.5 1t-8.5 2l-207 135v-109q0 -27 -26 -27t-26 27v281q0 13 16 13h166q113 0 113 -76v-39zM613 395q0 50 -20 95.5t-54 80
t-79.5 54.5t-97.5 20t-97.5 -20.5t-79.5 -55t-53.5 -80t-19.5 -94.5q0 -52 19.5 -98t53.5 -80.5t79.5 -54.5t97.5 -20t97.5 20t79.5 54.5t54 80.5t20 98zM664 395q0 -62 -24 -117t-65 -96t-96 -65t-117 -24q-63 0 -117 24t-94.5 65.5t-63.5 96t-23 116.5q0 61 23.5 115
t64 95t94.5 65t116 24q61 0 116 -24t96 -64.5t65.5 -95t24.5 -115.5z" />
    <glyph glyph-name=".notdef" horiz-adv-x="322" 
d="M40 0v240q-9 16 -14.5 33.5t-5.5 37.5t5.5 37.5t14.5 32.5v246h243v-246q9 -15 14.5 -32.5t5.5 -37.5t-5.5 -37.5t-14.5 -33.5v-240h-243zM247 591h-172v-169q17 15 39.5 22.5t46.5 7.5q51 0 86 -30v169zM247 199q-35 -29 -86 -29q-24 0 -46.5 7.5t-39.5 21.5v-163h172
v163zM267 311q0 45 -30.5 75t-75.5 30t-75 -30t-30 -75t30 -75t75 -30t75.5 30t30.5 75zM218 246q-29 12 -57 12q-26 0 -53 -12l-10 22q17 6 32 9.5t31 3.5q17 0 33 -3.5t33 -9.5zM111 329v50h23v-50h-23zM189 329v50h23v-50h-23z" />
    <glyph glyph-name=".null" horiz-adv-x="0" 
 />
    <glyph glyph-name="nonmarkingreturn" horiz-adv-x="333" 
 />
    <glyph glyph-name="glyph354" horiz-adv-x="0" 
 />
    <glyph glyph-name="glyph354" horiz-adv-x="0" 
 />
    <glyph glyph-name="space" unicode=" " horiz-adv-x="419" 
 />
    <glyph glyph-name="exclam" unicode="!" horiz-adv-x="313" 
d="M227 49q0 -48 -72 -48q-69 0 -69 48q0 45 69 45q72 0 72 -45zM211 179q0 -38 -56 -38q-51 0 -51 38v413q0 39 52 39q55 0 55 -39v-413z" />
    <glyph glyph-name="quotedbl" unicode="&#x22;" horiz-adv-x="367" 
d="M146 441q0 -39 -50 -39q-48 0 -48 39v155q0 39 47 39q51 0 51 -39v-155zM320 441q0 -39 -51 -39q-48 0 -48 39v155q0 39 48 39q51 0 51 -39v-155z" />
    <glyph glyph-name="numbersign" unicode="#" horiz-adv-x="753" 
d="M273 267h194l31 93h-195zM443 192h-196l-52 -162q-5 -13 -16 -18.5t-22 -5.5q-21 0 -39.5 12t-18.5 32q0 5 3 11l43 131h-90q-35 0 -35 39q0 36 35 36h113l31 93h-98q-38 0 -38 40q0 35 38 35h123l52 163q4 13 16 19.5t24 6.5q10 0 20.5 -3.5t18.5 -9.5t13.5 -13.5
t5.5 -15.5v-11l-46 -136h193l54 163q5 14 15.5 20t23.5 6q20 0 38 -13t18 -31q0 -9 -1 -11l-44 -134h70q35 0 35 -35q0 -40 -35 -40h-94l-32 -93h83q37 0 37 -36q0 -39 -37 -39h-107l-54 -162q-8 -24 -37 -24q-21 0 -39 12t-18 32q0 7 1 10z" />
    <glyph glyph-name="dollar" unicode="$" horiz-adv-x="944" 
d="M155 420q0 -62 174 -62h87v194h-123q-138 0 -138 -72v-60zM523 284v-209h104q167 0 167 64v74q0 71 -201 71h-70zM523 0v-24q0 -36 -51 -36q-56 0 -56 36v24h-330q-41 0 -41 39q0 36 41 36h330v209h-65q-300 0 -300 148v34q0 161 263 161h102v13q0 41 56 41q51 0 51 -41
v-282h53q320 0 320 -159v-49q0 -150 -288 -150h-85z" />
    <glyph glyph-name="percent" unicode="%" horiz-adv-x="1190" 
d="M1045 198q0 45 -105 45h-69q-119 0 -119 -53v-71q0 -47 119 -47h70q104 0 104 47v79zM431 515q0 41 -105 41h-71q-118 0 -118 -51v-73q0 -48 119 -48h73q102 0 102 48v83zM884 639q13 13 30 13q12 0 23 -4.5t19.5 -11.5t14 -16t5.5 -18q0 -15 -9 -24l-649 -574
q-14 -13 -27 -13q-11 0 -22 3.5t-21 10.5t-16 16t-6 20q0 13 10 23zM1142 120q0 -120 -220 -120h-36q-227 0 -227 120v69q0 123 230 123h33q220 0 220 -122v-70zM527 434q0 -119 -220 -119h-36q-227 0 -227 119v68q0 125 230 125h33q220 0 220 -123v-70z" />
    <glyph glyph-name="ampersand" unicode="&#x26;" horiz-adv-x="1093" 
d="M385 552q-135 0 -135 -47v-42q0 -21 48 -46l110 -53l237 61q50 12 50 37v38q0 52 -129 52h-181zM664 75q39 0 69 5t53 13h1l-385 187q-69 -17 -114.5 -31t-72.5 -26t-37.5 -23t-10.5 -22v-50q0 -53 189 -53h308zM881 46q-88 -46 -238 -46h-269q-311 0 -311 139v27
q0 34 14.5 59t43 44t71 34t98.5 30l-84 41q-59 29 -59 101v18q0 134 260 134h143q251 0 251 -133v-17q0 -48 -25.5 -78t-85.5 -45l-174 -44l339 -162q28 38 28 91v52q0 37 50 37q52 0 52 -36v-51q0 -89 -41 -138l81 -37q11 -5 14.5 -12.5t3.5 -15.5q0 -16 -13 -29.5
t-35 -13.5q-9 0 -22 9z" />
    <glyph glyph-name="quotesingle" unicode="'" horiz-adv-x="192" 
d="M144 441q0 -39 -48 -39t-48 39v155q0 39 48 39t48 -39v-155z" />
    <glyph glyph-name="parenleft" unicode="(" horiz-adv-x="374" 
d="M305 610q-91 0 -91 -42v-495q0 -56 91 -56q38 0 38 -37q0 -38 -38 -38h-12q-185 0 -185 129v497q0 118 177 118h20q38 0 38 -37q0 -39 -38 -39z" />
    <glyph glyph-name="parenright" unicode=")" horiz-adv-x="374" 
d="M68 610q-38 0 -38 39q0 37 38 37h21q177 0 177 -118v-497q0 -129 -181 -129h-17q-38 0 -38 38q0 37 38 37q93 0 93 56v495q0 42 -93 42z" />
    <glyph glyph-name="asterisk" unicode="*" horiz-adv-x="546" 
d="M201 448l41 8l-41 8l-115 34q-14 4 -19.5 12.5t-5.5 21.5q0 12 5.5 24t14 22t19.5 16.5t22 6.5q8 0 22 -11l88 -77l27 -31l-14 33l-28 117v4q0 19 18.5 28.5t39.5 9.5q23 0 41 -9t18 -27q0 -1 -2 -11l-29 -108l-14 -37l26 30l85 76q11 10 22 10t22 -6.5t20 -16.5
t14.5 -22.5t5.5 -25.5q0 -10 -5.5 -19.5t-19.5 -13.5l-117 -31l-37 -7l36 -4l116 -34q15 -6 20.5 -13.5t5.5 -20.5q0 -12 -5.5 -24.5t-14.5 -22.5t-20 -16.5t-21 -6.5q-12 0 -21 9l-86 79l-26 29l14 -38l28 -113q1 -5 1.5 -8t0.5 -4q0 -16 -16.5 -24t-37.5 -8q-24 0 -44 9
t-20 26q0 5 2 11l28 110l14 39l-26 -29l-89 -79q-11 -9 -21 -9q-11 0 -22 6.5t-20 16.5t-14.5 22.5t-5.5 24.5q0 24 25 34z" />
    <glyph glyph-name="plus" unicode="+" horiz-adv-x="494" 
d="M460 313q0 -38 -34 -38h-129v-63q0 -39 -48 -39q-53 0 -53 39v63h-127q-35 0 -35 38q0 36 35 36h126v61q0 38 50 38q52 0 52 -38v-61h129q34 0 34 -36z" />
    <glyph glyph-name="comma" unicode="," horiz-adv-x="198" 
d="M125 -57q-5 -17 -22 -26t-36 -9q-16 0 -26.5 7.5t-10.5 21.5v8l35 153q7 20 25 30.5t36 10.5q22 0 34.5 -9t12.5 -25q0 -3 -0.5 -6.5t-0.5 -5.5z" />
    <glyph glyph-name="hyphen" unicode="-" horiz-adv-x="521" 
d="M53 227q-38 0 -38 33q0 35 38 35h419q35 0 35 -33q0 -35 -35 -35h-419z" />
    <glyph glyph-name="period" unicode="." horiz-adv-x="248" 
d="M195 49q0 -48 -72 -48q-70 0 -70 48q0 45 70 45q72 0 72 -45z" />
    <glyph glyph-name="slash" unicode="/" horiz-adv-x="825" 
d="M91 -1q-14 -11 -28 -11q-19 0 -33 14t-14 29q0 8 2 15.5t11 12.5l690 565q16 13 30 13q21 0 41 -11.5t20 -31.5q0 -16 -17 -30z" />
    <glyph glyph-name="zero" unicode="0" horiz-adv-x="1031" 
d="M860 452q0 100 -174 100h-337q-179 0 -179 -100l-1 -293q0 -84 180 -84h337q174 0 174 85v292zM967 186q0 -186 -314 -186h-275q-314 0 -314 170v271q0 186 317 186h275q311 0 311 -186v-255z" />
    <glyph glyph-name="one" unicode="1" horiz-adv-x="257" 
d="M181 35q0 -40 -55 -40q-51 0 -51 40v557q0 39 53 39t53 -39v-557z" />
    <glyph glyph-name="two" unicode="2" horiz-adv-x="1076" 
d="M1022 431q0 -159 -277 -159h-382q-196 0 -196 -71v-126h819q36 0 36 -37q0 -38 -36 -38h-889q-34 0 -34 31v168q0 150 321 150h375q155 0 155 69v65q0 69 -144 69h-201q-42 0 -42 37q0 38 42 38h184q269 0 269 -156v-40z" />
    <glyph glyph-name="three" unicode="3" horiz-adv-x="1069" 
d="M1014 445q0 -89 -119 -121q119 -32 119 -128v-36q0 -160 -312 -160h-614q-45 0 -45 38q0 37 45 37h635q185 0 185 80v62q-10 64 -180 64h-640q-46 0 -46 37q0 40 46 40h641q179 0 179 68v60q0 66 -184 66h-151q-44 0 -44 37q0 38 44 38h122q319 0 319 -145v-37z" />
    <glyph glyph-name="four" unicode="4" horiz-adv-x="1156" 
d="M1080 35q0 -40 -53 -40q-54 0 -54 40v129h-853q-56 0 -56 52v376q0 39 53 39q51 0 51 -39v-336h805v336q0 39 54 39q53 0 53 -39v-557z" />
    <glyph glyph-name="five" unicode="5" horiz-adv-x="1104" 
d="M1041 153q0 -153 -333 -153h-612q-41 0 -41 38q0 37 41 37h623q215 0 215 78v94q0 86 -176 86h-662q-33 0 -33 30v233q0 31 33 31h464q43 0 43 -38q0 -37 -43 -37h-392v-145h568q305 0 305 -160v-94z" />
    <glyph glyph-name="six" unicode="6" horiz-adv-x="1117" 
d="M954 251q0 83 -199 83h-582v-170q0 -89 195 -89h412q174 0 174 79v97zM1059 153q0 -153 -300 -153h-374q-321 0 -321 149v323q0 154 372 154h109q43 0 43 -37t-43 -37h-160q-212 0 -212 -92v-51h559q327 0 327 -156v-100z" />
    <glyph glyph-name="seven" unicode="7" horiz-adv-x="1004" 
d="M419 15q-16 -16 -31 -16q-16 0 -33 12.5t-17 32.5q0 16 13 29l485 479h-778q-39 0 -39 40q0 35 39 35h853q33 0 50.5 -12.5t17.5 -31.5q0 -21 -18 -36z" />
    <glyph glyph-name="eight" unicode="8" horiz-adv-x="1110" 
d="M920 486q0 66 -171 66h-391q-173 0 -173 -66v-68q0 -59 166 -59h398q171 0 171 59v68zM937 207q0 74 -189 74h-390q-190 0 -190 -74v-72q0 -60 190 -60h390q189 0 189 61v71zM1045 154q0 -154 -315 -154h-353q-313 0 -313 150v46q0 91 135 124q-120 30 -120 105v48
q0 154 317 154h315q315 0 315 -155v-48q0 -76 -117 -104q136 -33 136 -124v-42z" />
    <glyph glyph-name="nine" unicode="9" horiz-adv-x="1052" 
d="M884 295v168q0 89 -193 89h-363q-168 0 -168 -78v-99q0 -42 51 -61t151 -19h522zM987 156q0 -156 -303 -156h-138q-46 0 -46 38q0 37 46 37h115q223 0 223 89v54h-501q-328 0 -328 156v103q0 150 300 150h314q318 0 318 -178v-293z" />
    <glyph glyph-name="colon" unicode=":" horiz-adv-x="249" 
d="M196 52q0 -47 -72 -47q-71 0 -71 47q0 45 69 45q74 0 74 -45zM196 300q0 -47 -72 -47q-71 0 -71 47q0 46 69 46q74 0 74 -46z" />
    <glyph glyph-name="semicolon" unicode=";" horiz-adv-x="229" 
d="M191 298q0 -47 -70 -47q-69 0 -69 47t69 47q70 0 70 -47zM128 -57q-8 -17 -25 -26.5t-35 -9.5q-14 0 -26 7.5t-12 22.5l2 8l35 153q6 20 25.5 30.5t36.5 10.5q20 0 33.5 -9t13.5 -25q0 -5 -0.5 -7.5t-1.5 -4.5z" />
    <glyph glyph-name="less" unicode="&#x3c;" horiz-adv-x="552" 
d="M438 453q9 3 15.5 3.5t10.5 1.5q20 0 34.5 -12.5t14.5 -29.5q0 -14 -5.5 -22t-22.5 -14l-291 -105l293 -107q17 -5 23.5 -15t6.5 -21q0 -18 -13 -32t-34 -14q-2 0 -27 5l-383 150q-13 5 -19.5 13t-6.5 23q0 24 27 35z" />
    <glyph glyph-name="equal" unicode="=" horiz-adv-x="564" 
d="M71 165q-37 0 -37 36q0 33 37 33h418q35 0 35 -35q0 -34 -35 -34h-418zM71 324q-37 0 -37 37q0 32 37 32h418q40 0 40 -36q0 -33 -40 -33h-418z" />
    <glyph glyph-name="greater" unicode="&#x3e;" horiz-adv-x="552" 
d="M116 93q-11 -3 -17 -4t-9 -1q-21 0 -35.5 13.5t-14.5 30.5q0 10 6.5 19t22.5 15l290 105l-294 106q-31 10 -31 39q0 17 14 31.5t36 14.5q11 0 25 -7l384 -150q25 -10 25 -35q0 -27 -25 -36z" />
    <glyph glyph-name="question" unicode="?" horiz-adv-x="690" 
d="M185 52q0 -47 -70 -47t-70 47q0 45 70 45t70 -45zM638 400q0 -149 -298 -149h-108q-63 0 -63 -40v-21q0 -46 -52 -46q-50 0 -50 46v20q0 116 178 116h118q179 0 179 62v84q0 80 -179 80h-52q-39 0 -39 36q0 39 39 39h33q294 0 294 -167v-60z" />
    <glyph glyph-name="at" unicode="@" horiz-adv-x="909" 
d="M354 258q0 -24 90 -24h89v163h-93q-86 0 -86 -26v-113zM845 267q0 -111 -141 -111h-260q-176 0 -181 101v112q0 98 181 98h148q31 0 31 -28v-205h79q46 0 46 33v249q0 36 -93 36h-382q-113 0 -114 -60l1 -348q0 -69 118 -69h71q42 0 42 -33q0 -42 -42 -42h-46
q-239 0 -239 144v348q0 135 207 135h384q190 0 190 -127v-233z" />
    <glyph glyph-name="A" unicode="A" horiz-adv-x="1110" 
d="M310 247h487l-241 305zM862 170h-615l-129 -154q-8 -10 -20 -15.5t-21 -5.5q-21 0 -38.5 12.5t-17.5 31.5q0 11 8 22l452 539q14 17 33.5 25t39.5 8q42 0 71 -33l454 -538q9 -12 9 -24q0 -17 -16 -29t-37 -12q-25 0 -42 20z" />
    <glyph glyph-name="B" unicode="B" horiz-adv-x="1054" 
d="M187 552v-203h505q176 0 176 68v63q0 72 -163 72h-518zM180 75h550q163 0 163 64v60q0 73 -197 73h-516v-197zM976 433q0 -88 -109 -119q134 -33 134 -131v-30q0 -153 -271 -153h-621q-34 0 -34 31v565q0 31 34 31h593q274 0 274 -161v-33z" />
    <glyph glyph-name="C" unicode="C" horiz-adv-x="922" 
d="M374 552q-205 0 -205 -73v-319q0 -85 223 -85h434q38 0 38 -37q0 -38 -38 -38h-450q-312 0 -312 157v322q0 148 305 148h457q38 0 38 -38q0 -37 -38 -37h-452z" />
    <glyph glyph-name="D" unicode="D" horiz-adv-x="1074" 
d="M904 472q0 80 -197 80h-523v-477h521q199 0 199 89v308zM1009 164q0 -164 -302 -164h-598q-34 0 -34 31v565q0 31 34 31h600q300 0 300 -155v-308z" />
    <glyph glyph-name="E" unicode="E" horiz-adv-x="970" 
d="M173 349h699q36 0 36 -39q0 -38 -36 -38h-699v-117q0 -80 197 -80h502q37 0 37 -37q0 -38 -37 -38h-506q-302 0 -302 151v321q0 155 312 155h139q37 0 37 -39q0 -36 -37 -36h-95q-247 0 -247 -80v-123z" />
    <glyph glyph-name="F" unicode="F" horiz-adv-x="932" 
d="M173 272v-237q0 -40 -52 -40q-57 0 -57 40v435q0 157 304 157h107q40 0 40 -36q0 -39 -40 -39h-95q-207 0 -207 -81v-122h695q40 0 40 -37q0 -40 -40 -40h-695z" />
    <glyph glyph-name="G" unicode="G" horiz-adv-x="1059" 
d="M986 154q0 -154 -288 -154h-320q-314 0 -314 153v324q0 150 318 150h124q38 0 38 -38q0 -37 -38 -37h-88q-245 0 -245 -75v-324q0 -78 209 -78h316q181 0 181 75v167q0 38 53 38q54 0 54 -38v-163z" />
    <glyph glyph-name="H" unicode="H" horiz-adv-x="1085" 
d="M1009 35q0 -40 -53 -40q-52 0 -52 40v237h-721v-237q0 -40 -55 -40q-53 0 -53 40v557q0 39 55 39q53 0 53 -39v-243h721v243q0 39 51 39q54 0 54 -39v-557z" />
    <glyph glyph-name="I" unicode="I" horiz-adv-x="281" 
d="M195 35q0 -39 -55 -39q-54 0 -54 39v557q0 39 56 39q53 0 53 -39v-557z" />
    <glyph glyph-name="J" unicode="J" horiz-adv-x="474" 
d="M403 179q0 -179 -294 -179h-68q-41 0 -41 38q0 37 41 37h68q187 0 187 98v419q0 39 55 39q52 0 52 -39v-413z" />
    <glyph glyph-name="K" unicode="K" horiz-adv-x="929" 
d="M287 319l584 -246q14 -6 20 -15t6 -19q0 -15 -14 -29t-33 -14q-10 0 -24 8l-633 273v-242q0 -40 -50 -40q-54 0 -54 40v557q0 39 55 39q49 0 49 -39v-235l605 267q11 8 28 8q21 0 35 -13t14 -30q0 -8 -5.5 -17t-16.5 -14z" />
    <glyph glyph-name="L" unicode="L" horiz-adv-x="939" 
d="M431 0q-361 0 -361 160v432q0 39 54 39t54 -39v-432q0 -85 246 -85h460q41 0 41 -40q0 -35 -41 -35h-453z" />
    <glyph glyph-name="M" unicode="M" horiz-adv-x="1422" 
d="M1347 35q0 -40 -54 -40q-51 0 -51 40v466l-450 -473q-32 -33 -75 -33q-48 0 -79 33l-459 472v-465q0 -40 -50 -40q-54 0 -54 40v543q0 53 59 53q44 0 74 -33l510 -514l498 520q25 27 68 27q63 0 63 -55v-541z" />
    <glyph glyph-name="N" unicode="N" horiz-adv-x="1078" 
d="M1003 57q0 -31 -19 -46.5t-46 -15.5q-17 0 -28.5 5t-24.5 14l-706 501v-480q0 -40 -51 -40q-53 0 -53 40v537q0 30 20.5 43.5t46.5 13.5q14 0 29.5 -4t26.5 -14l700 -492v473q0 39 53 39q52 0 52 -39v-535z" />
    <glyph glyph-name="O" unicode="O" horiz-adv-x="1032" 
d="M863 458q0 94 -198 94h-283q-209 0 -209 -94v-293q0 -90 209 -90h277q204 0 204 90v293zM968 164q0 -164 -341 -164h-221q-342 0 -342 162v301q0 164 342 164h221q341 0 341 -164v-299z" />
    <glyph glyph-name="P" unicode="P" horiz-adv-x="1056" 
d="M903 479q0 73 -190 73h-529v-246h522q197 0 197 77v96zM1006 377q0 -146 -315 -146h-507v-196q0 -40 -55 -40q-54 0 -54 40v561q0 31 34 31h588q309 0 309 -140v-110z" />
    <glyph glyph-name="Q" unicode="Q" horiz-adv-x="1056" 
d="M884 470q0 82 -225 82h-263q-223 0 -223 -82v-310q0 -85 221 -85h315q175 0 175 85v310zM992 162q0 -106 -139 -145h-2l60 -26q14 -6 18 -13t4 -18q0 -16 -12.5 -28.5t-32.5 -12.5q-8 0 -14 1t-14 5l-165 78h-333q-298 0 -298 159v305q0 160 297 160h328q303 0 303 -158
v-307z" />
    <glyph glyph-name="R" unicode="R" horiz-adv-x="1052" 
d="M894 471q0 81 -198 81h-512v-229h533q177 0 177 66v82zM1000 398q0 -150 -295 -150h-290l498 -173q14 -5 20.5 -15t6.5 -20q0 -17 -12 -31t-34 -14q-11 0 -20 6l-690 257v-223q0 -40 -53 -40q-56 0 -56 40v561q0 31 34 31h570q321 0 321 -161v-68z" />
    <glyph glyph-name="S" unicode="S" horiz-adv-x="972" 
d="M901 144q0 -144 -291 -144h-522q-38 0 -38 39q0 36 38 36h538q168 0 168 74v53q0 82 -201 82h-238q-302 0 -302 132v63q0 148 265 148h132q37 0 37 -39q0 -36 -37 -36h-150q-140 0 -140 -79v-48q0 -67 175 -67h245q321 0 321 -146v-68z" />
    <glyph glyph-name="T" unicode="T" horiz-adv-x="856" 
d="M479 552v-517q0 -40 -53 -40q-52 0 -52 40v517h-331q-37 0 -37 39q0 36 37 36h768q35 0 35 -36q0 -39 -35 -39h-332z" />
    <glyph glyph-name="U" unicode="U" horiz-adv-x="1064" 
d="M994 172q0 -172 -384 -172h-177q-363 0 -363 172v420q0 39 53 39q54 0 54 -39v-413q0 -104 238 -104h213q259 0 259 104v413q0 39 54 39q53 0 53 -39v-420z" />
    <glyph glyph-name="V" unicode="V" horiz-adv-x="1107" 
d="M557 75l430 533q21 22 45 22q21 0 37.5 -11.5t16.5 -30.5q-1 -5 -2.5 -11.5t-7.5 -11.5l-450 -535q-30 -35 -73 -35t-71 34l-452 535q-9 12 -9 24q0 19 16.5 30t37.5 11q25 0 45 -20z" />
    <glyph glyph-name="W" unicode="W" horiz-adv-x="1468" 
d="M737 523l-268 -489q-11 -17 -29 -26.5t-38 -9.5q-21 0 -40.5 9.5t-32.5 29.5l-304 535q-4 12 -4 17q0 19 18.5 30.5t40.5 11.5q27 0 41 -26l282 -512l262 495q11 21 31 30.5t41 9.5q20 0 38 -9t26 -27l269 -499l274 512q9 14 20.5 20t25.5 6q20 0 38 -12t18 -31
q0 -10 -3 -17l-306 -533q-12 -20 -31.5 -30t-39.5 -10t-39.5 9.5t-29.5 28.5z" />
    <glyph glyph-name="X" unicode="X" horiz-adv-x="978" 
d="M488 261l-367 -252q-15 -11 -34 -11q-18 0 -35.5 11.5t-17.5 28.5q0 12 14 23l364 253l-358 248q-11 7 -14 14.5t-3 15.5q0 17 14.5 28t35.5 11q17 0 34 -12l367 -253l363 252q10 7 19 9.5t18 3.5q19 0 33.5 -11.5t14.5 -27.5q0 -19 -18 -31l-358 -247l366 -252
q13 -9 15 -24q0 -16 -17 -28t-38 -12q-11 0 -18 2.5t-15 8.5z" />
    <glyph glyph-name="Y" unicode="Y" horiz-adv-x="930" 
d="M464 337l353 280q20 11 37 11q20 0 37 -11.5t17 -27.5t-13 -26l-375 -298h-3v-231q-3 -39 -52 -39q-54 0 -54 40v230h-2l-375 298q-13 10 -13 25q0 17 17 29t38 12q8 0 17 -2t18 -10z" />
    <glyph glyph-name="Z" unicode="Z" horiz-adv-x="918" 
d="M721 552h-640q-38 0 -38 39q0 36 38 36h748q21 0 36 -14.5t15 -31.5q0 -19 -15 -29l-689 -477h667q37 0 37 -37q0 -38 -37 -38h-747q-32 0 -49 16t-17 36q0 21 19 34z" />
    <glyph glyph-name="bracketleft" unicode="[" horiz-adv-x="339" 
d="M209 610v-593h63q43 0 43 -37q0 -38 -43 -38h-138q-17 0 -25 5.5t-8 25.5v682q0 19 7.5 25t25.5 6h142q39 0 39 -36q0 -40 -39 -40h-67z" />
    <glyph glyph-name="backslash" unicode="\" horiz-adv-x="826" 
d="M31 566q-15 10 -15 32q0 19 15 30.5t35 11.5q8 0 18 -3t21 -12l691 -565q15 -12 15 -31q0 -18 -14.5 -29.5t-31.5 -11.5q-18 0 -35 14z" />
    <glyph glyph-name="bracketright" unicode="]" horiz-adv-x="362" 
d="M30 -20q0 37 43 37h64v593h-66q-41 0 -41 40q0 36 41 36h141q17 0 24.5 -6t7.5 -25v-682q0 -20 -8 -25.5t-24 -5.5h-139q-43 0 -43 38z" />
    <glyph glyph-name="asciicircum" unicode="^" horiz-adv-x="482" 
d="M440 622q7 -7 7 -20q0 -14 -11 -22.5t-27 -8.5q-14 0 -26 12l-138 115h-7l-138 -115q-12 -12 -24 -12q-17 0 -28.5 9.5t-11.5 23.5q0 10 7 17l162 134q15 15 37 15q19 0 37 -15z" />
    <glyph glyph-name="underscore" unicode="_" horiz-adv-x="905" 
d="M29 -167q-46 0 -46 47q0 44 46 44h846q46 0 46 -45q0 -46 -46 -46h-846z" />
    <glyph glyph-name="grave" unicode="`" horiz-adv-x="267" 
d="M242 569q8 -6 8 -17t-11 -20.5t-25 -9.5q-15 0 -22 9l-169 140q-6 4 -6 21q0 12 8 21.5t22 9.5q3 -2 9.5 -3t14.5 -8z" />
    <glyph glyph-name="a" unicode="a" horiz-adv-x="961" 
d="M801 264h-508q-134 0 -134 -65v-66q0 -60 142 -60h363q137 0 137 92v99zM897 140q0 -140 -253 -140h-322q-265 0 -265 134v62q0 141 260 141h484q-9 71 -140 71h-133q-33 0 -33 36q0 35 33 35h116q253 0 253 -143v-196z" />
    <glyph glyph-name="b" unicode="b" horiz-adv-x="937" 
d="M776 328q0 80 -179 80h-430v-264q0 -71 187 -71h265q157 0 157 77v178zM872 148q0 -148 -295 -148h-203q-304 0 -304 144v448q0 39 50 39q47 0 47 -39v-113h410q295 0 295 -148v-183z" />
    <glyph glyph-name="c" unicode="c" horiz-adv-x="840" 
d="M357 0q-293 0 -293 142v197q0 140 266 140h404q46 0 46 -35q0 -36 -46 -36h-420q-152 0 -152 -68v-195q0 -72 174 -72h398q41 0 41 -39q0 -34 -41 -34h-377z" />
    <glyph glyph-name="d" unicode="d" horiz-adv-x="937" 
d="M770 407h-433q-176 0 -176 -86v-171q0 -77 170 -77h251q188 0 188 77v257zM868 140q0 -140 -303 -140h-204q-297 0 -297 132v200q0 147 296 147h410v113q0 39 48 39q50 0 50 -39v-452z" />
    <glyph glyph-name="e" unicode="e" horiz-adv-x="913" 
d="M161 271h602v71q0 66 -132 66h-294q-176 0 -176 -69v-68zM858 236q0 -40 -43 -40h-654v-59q0 -64 176 -64h121q40 0 40 -36q0 -37 -40 -37h-92q-302 0 -302 148v184q0 147 298 147h248q248 0 248 -128v-115z" />
    <glyph glyph-name="f" unicode="f" horiz-adv-x="440" 
d="M298 553q-129 0 -131 -74h222q34 0 34 -35q0 -36 -34 -36h-222v-374q0 -39 -47 -39q-50 0 -50 39v445q0 144 250 144h66q37 0 37 -35t-35 -35h-90z" />
    <glyph glyph-name="g" unicode="g" horiz-adv-x="928" 
d="M758 73v255q0 80 -180 80h-246q-171 0 -171 -72v-191q0 -72 196 -72h401zM858 7q0 -143 -293 -143h-90q-44 0 -44 35q0 36 44 36h106q181 0 181 59v6h-384q-314 0 -314 144v190q0 145 286 145h196q312 0 312 -146v-326z" />
    <glyph glyph-name="h" unicode="h" horiz-adv-x="939" 
d="M869 34q0 -39 -49 -39q-51 0 -51 39v292q0 82 -191 82h-406v-374q0 -39 -48 -39q-49 0 -49 39v558q0 39 49 39q48 0 48 -39v-113h374q323 0 323 -151v-294z" />
    <glyph glyph-name="i" unicode="i" horiz-adv-x="259" 
d="M196 548q0 -46 -72 -46q-66 0 -66 46q0 45 66 45q72 0 72 -45zM177 34q0 -39 -50 -39q-47 0 -47 39v380q0 37 47 37q50 0 50 -37v-380z" />
    <glyph glyph-name="j" unicode="j" horiz-adv-x="308" 
d="M250 551q0 -47 -68 -47q-69 0 -69 47q0 44 69 44q68 0 68 -44zM232 37q0 -141 -243 -141h-86q-39 0 -39 34q0 38 39 38h95q135 0 135 60v386q0 37 49 37q50 0 50 -37v-377z" />
    <glyph glyph-name="k" unicode="k" horiz-adv-x="766" 
d="M257 247l452 -181q12 -5 16.5 -12.5t4.5 -15.5q0 -16 -14 -29.5t-33 -13.5q-3 0 -8.5 1t-13.5 5l-489 200v-167q0 -39 -48 -39q-49 0 -49 39v558q0 39 49 39q48 0 48 -39v-300l493 188q15 5 20 5q19 0 32 -12t13 -28q0 -20 -23 -29z" />
    <glyph glyph-name="l" unicode="l" horiz-adv-x="247" 
d="M172 34q0 -39 -48 -39q-49 0 -49 39v558q0 39 49 39q48 0 48 -39v-558z" />
    <glyph glyph-name="m" unicode="m" horiz-adv-x="1239" 
d="M1169 34q0 -39 -49 -39q-50 0 -50 39v305q0 69 -184 69q-216 0 -216 -82v-292q0 -39 -48 -39q-51 0 -51 39v292q0 82 -217 82q-187 0 -187 -69v-305q0 -39 -49 -39q-48 0 -48 39v294q0 151 284 151q209 0 270 -85q61 85 262 85q283 0 283 -151v-294z" />
    <glyph glyph-name="n" unicode="n" horiz-adv-x="926" 
d="M856 34q0 -39 -51 -39t-51 39v315q0 59 -155 59h-273q-159 0 -159 -59v-315q0 -39 -47 -39q-50 0 -50 39v315q0 130 285 130h214q287 0 287 -130v-315z" />
    <glyph glyph-name="o" unicode="o" horiz-adv-x="914" 
d="M748 339q0 69 -161 69h-251q-175 0 -175 -78v-185q0 -72 176 -72h252q159 0 159 72v194zM850 145q0 -145 -279 -145h-222q-285 0 -285 145v185q0 149 287 149h220q279 0 279 -148v-186z" />
    <glyph glyph-name="p" unicode="p" horiz-adv-x="928" 
d="M764 340q0 68 -179 68h-245q-173 0 -173 -69v-266h448q149 0 149 71v196zM864 144q0 -144 -269 -144h-428v-109q0 -39 -47 -39q-50 0 -50 39v449q0 139 284 139h211q299 0 299 -137v-198z" />
    <glyph glyph-name="q" unicode="q" horiz-adv-x="928" 
d="M162 144q0 -71 152 -71h445v266q0 69 -172 69h-244q-181 0 -181 -68v-196zM64 342q0 137 300 137h208q286 0 286 -139v-449q0 -39 -48 -39q-51 0 -51 39v109h-427q-268 0 -268 144v198z" />
    <glyph glyph-name="r" unicode="r" horiz-adv-x="454" 
d="M333 408q-165 0 -165 -74v-300q0 -39 -48 -39q-50 0 -50 39v300q0 145 273 145h51q37 0 37 -36q0 -35 -30 -35h-68z" />
    <glyph glyph-name="s" unicode="s" horiz-adv-x="838" 
d="M784 127q0 -127 -224 -127h-464q-42 0 -42 35q0 38 42 38h482q106 0 106 54v29q0 53 -118 53h-256q-248 0 -248 121v32q0 117 237 117h127q44 0 44 -36q0 -35 -44 -35h-155q-112 0 -112 -46v-30q0 -52 133 -52h260q232 0 232 -124v-29z" />
    <glyph glyph-name="t" unicode="t" horiz-adv-x="503" 
d="M218 408v-374q0 -39 -49 -39q-48 0 -48 39v374h-59q-42 0 -42 36q0 35 42 35h59v113q0 39 50 39q47 0 47 -39v-113h226q40 0 40 -36q0 -35 -40 -35h-226z" />
    <glyph glyph-name="u" unicode="u" 
d="M865 139q0 -139 -302 -139h-189q-304 0 -304 139v310q0 38 49 38q48 0 48 -38v-310q0 -66 188 -66h226q184 0 184 64v312q0 37 51 37q49 0 49 -37v-310z" />
    <glyph glyph-name="v" unicode="v" horiz-adv-x="955" 
d="M513 16q-18 -21 -37 -21q-16 0 -35 19l-411 415q-9 9 -9 22q0 17 16 28t35 11q20 0 34 -14l371 -387l369 388q16 12 33 12q18 0 36.5 -11t18.5 -27q0 -14 -11 -22z" />
    <glyph glyph-name="w" unicode="w" horiz-adv-x="1203" 
d="M940 26q-9 -15 -28 -23t-41 -8q-20 0 -37 7.5t-23 21.5l-209 359l-213 -359q-9 -15 -27.5 -22.5t-38.5 -7.5q-48 0 -65 31l-232 399q-5 12 -5 19q0 18 15.5 30.5t35.5 12.5q11 0 20.5 -5t18.5 -18l217 -373l212 358q10 17 27 24.5t35 7.5t34 -7.5t25 -23.5l214 -360
l216 374q10 17 34 17q18 0 37.5 -11t19.5 -28q0 -8 -3 -14z" />
    <glyph glyph-name="x" unicode="x" horiz-adv-x="836" 
d="M417 287l304 186q17 9 33 10q21 0 35 -11.5t14 -27.5q0 -11 -4.5 -19t-15.5 -15l-285 -171l285 -174q15 -9 15 -27q0 -16 -13.5 -30t-31.5 -14q-8 0 -12 1.5t-12 8.5l-312 186l-310 -186q-13 -10 -25 -10q-20 0 -32 14t-12 30q0 6 3.5 14t11.5 13l284 174l-284 171
q-12 8 -16.5 16t-4.5 18q0 16 14.5 27.5t34.5 11.5q16 0 32 -10z" />
    <glyph glyph-name="y" unicode="y" 
d="M859 -5q0 -131 -244 -131h-137q-38 0 -38 36q0 35 38 35h146q139 0 139 60v5h-410q-283 0 -283 139v310q0 37 50 37q47 0 47 -37v-310q0 -66 164 -66h432v376q0 37 47 37q49 0 49 -37v-454z" />
    <glyph glyph-name="z" unicode="z" horiz-adv-x="893" 
d="M659 408h-557q-39 0 -39 35q0 36 39 36h656q30 0 46.5 -13.5t16.5 -31.5q0 -25 -28 -40l-594 -321h612q38 0 38 -36q0 -37 -38 -37h-711q-30 0 -47 12.5t-17 31.5q0 25 30 42z" />
    <glyph glyph-name="braceleft" unicode="{" horiz-adv-x="328" 
d="M252 -58q-131 0 -131 66v251q0 18 -20 18q-44 0 -44 39q0 40 44 40q20 0 20 16v248q0 66 138 66h14q41 0 41 -39q0 -37 -41 -37h-40q-25 0 -25 -14v-218q0 -42 -61 -64q61 -27 61 -66v-220q0 -11 25 -11h33q39 0 39 -37q0 -38 -39 -38h-14z" />
    <glyph glyph-name="bar" unicode="|" horiz-adv-x="387" 
d="M247 -111q0 -46 -56 -46q-51 0 -51 46v763q0 38 55 38q52 0 52 -38v-763z" />
    <glyph glyph-name="braceright" unicode="}" horiz-adv-x="331" 
d="M66 -58q-37 0 -37 38q0 37 37 37h32q26 0 26 13v218q0 39 63 66q-33 11 -48 27.5t-15 36.5v218q0 14 -26 14h-37q-44 0 -44 37q0 39 44 39h14q137 0 137 -66v-248q0 -16 20 -16q45 0 45 -40q0 -39 -45 -39q-20 0 -20 -18v-251q0 -66 -131 -66h-15z" />
    <glyph glyph-name="asciitilde" unicode="~" horiz-adv-x="874" 
d="M824 418q0 -126 -229 -126q-191 0 -208 116q-16 58 -72 58h-71q-96 0 -96 -57q0 -39 -47 -39q-52 0 -52 46q0 122 229 122q187 0 205 -116q18 -57 73 -57h71q98 0 98 53q0 40 46 40q53 0 53 -40z" />
    <glyph glyph-name="exclamdown" unicode="&#xa1;" horiz-adv-x="313" 
d="M227 393q0 -45 -71 -45q-70 0 -70 45q0 47 70 47q71 0 71 -47zM210 -160q0 -41 -55 -41q-52 0 -52 41v420q0 42 53 42q54 0 54 -42v-420z" />
    <glyph glyph-name="cent" unicode="&#xa2;" horiz-adv-x="972" 
d="M165 234q0 -76 176 -76h127v343h-149q-154 0 -154 -68v-199zM566 575h302q44 0 44 -37t-44 -37h-302v-343h302q41 0 41 -38q0 -34 -41 -34h-302v-55q0 -39 -48 -39q-50 0 -50 39v55h-107q-297 0 -297 143v202q0 144 271 144h133v21q0 39 48 39q50 0 50 -39v-21z" />
    <glyph glyph-name="sterling" unicode="&#xa3;" horiz-adv-x="968" 
d="M173 272v-197h695q40 0 40 -36q0 -40 -40 -40l-747 1q-57 0 -57 42v428q0 157 304 157h107q40 0 40 -36q0 -39 -40 -39h-95q-207 0 -207 -81v-122h443q39 0 39 -37q0 -40 -39 -40h-443z" />
    <glyph glyph-name="yen" unicode="&#xa5;" horiz-adv-x="972" 
d="M522 213v-49h158q35 0 35 -35q0 -34 -35 -34h-158v-61q-5 -39 -49 -39q-56 0 -56 40v60h-157q-36 0 -36 36q0 33 36 33h157v49h-157q-36 0 -36 37q0 32 36 32h133l-353 281q-12 7 -12 25q0 17 16.5 29.5t36.5 12.5q18 0 35 -13l354 -280l352 280q17 11 36 11
q22 0 38.5 -11.5t16.5 -28.5q0 -11 -11 -25l-353 -281h131q39 0 39 -35q0 -34 -39 -34h-158z" />
    <glyph glyph-name="brokenbar" unicode="&#xa6;" horiz-adv-x="388" 
d="M248 -111q0 -46 -56 -46q-52 0 -52 46v266q0 38 55 38q53 0 53 -38v-266zM248 373q0 -46 -56 -46q-52 0 -52 46v279q0 38 55 38q53 0 53 -38v-279z" />
    <glyph glyph-name="section" unicode="&#xa7;" horiz-adv-x="755" 
d="M271 385q-112 0 -112 -45v-34q0 -49 133 -49h186q104 0 104 46v31q0 51 -116 51h-195zM684 303q0 -59 -74 -85q74 -29 74 -86q0 -132 -225 -132h-363q-42 0 -42 35q0 38 42 38h382q104 0 104 59q0 51 -112 51h-159q-249 0 -249 122v35q0 58 73 83q-73 30 -73 87
q0 116 238 116h26q43 0 43 -37q0 -35 -43 -35h-55q-112 0 -112 -44q0 -52 128 -52h166q231 0 231 -124v-31z" />
    <glyph glyph-name="dieresis" unicode="&#xa8;" horiz-adv-x="562" 
d="M230 592q0 -42 -62 -42q-59 0 -59 42q0 41 59 41q62 0 62 -41zM453 592q0 -42 -62 -42q-61 0 -61 42q0 41 61 41q62 0 62 -41z" />
    <glyph glyph-name="ordfeminine" unicode="&#xaa;" horiz-adv-x="613" 
d="M486 468h-293q-73 0 -73 -32v-39q0 -29 77 -29h214q75 0 75 48v52zM552 402q0 -88 -153 -88h-189q-160 0 -160 84v36q0 88 157 88h277q-5 17 -23 23.5t-52 6.5h-78q-26 0 -26 28q0 25 26 25h68q153 0 153 -89v-114z" />
    <glyph glyph-name="guillemotleft" unicode="&#xab;" horiz-adv-x="670" 
d="M266 452q16 10 28 10q21 0 34 -13.5t13 -30.5q0 -21 -21 -33l-184 -110l184 -107q13 -8 17 -16t5 -19q0 -16 -13.5 -29.5t-34.5 -13.5q-16 0 -28 9l-232 144q-19 9 -19 33q0 12 4.5 19.5t15.5 14.5zM579 452q8 4 14.5 6.5t12.5 3.5q21 0 34 -13.5t13 -30.5
q0 -11 -4.5 -18.5t-15.5 -14.5l-184 -110l184 -107q22 -13 22 -35q0 -16 -14 -29.5t-35 -13.5q-6 0 -13.5 2t-13.5 7l-233 144q-10 6 -14 12.5t-4 20.5q0 22 19 34z" />
    <glyph glyph-name="macron" unicode="&#xaf;" horiz-adv-x="542" 
d="M62 552q-45 0 -45 36q0 39 45 39h417q46 0 46 -37q0 -38 -46 -38h-417z" />
    <glyph glyph-name="degree" unicode="&#xb0;" horiz-adv-x="467" 
d="M363 568q0 19 -9.5 37t-26 32.5t-40.5 23.5t-52 9q-30 0 -53 -9t-39 -23.5t-24.5 -32.5t-8.5 -37q0 -21 9 -39.5t25.5 -32.5t39.5 -22t51 -8q26 0 49.5 8t41 22t27.5 32.5t10 39.5zM416 569q0 -33 -14 -62t-38.5 -50t-57.5 -33t-71 -12q-36 0 -69 12t-58.5 33t-40.5 49.5
t-15 62.5q0 33 15 61.5t40 49.5t58 32.5t70 11.5q32 0 64.5 -10.5t58.5 -30.5t42 -48.5t16 -65.5z" />
    <glyph glyph-name="plusminus" unicode="&#xb1;" horiz-adv-x="501" 
d="M59 82q-39 0 -39 34q0 33 39 33h356q35 0 35 -31q0 -36 -35 -36h-356zM450 313q0 -38 -35 -38h-129v-63q0 -39 -49 -39q-51 0 -51 39v63h-127q-36 0 -36 38q0 36 36 36h125v61q0 38 51 38t51 -38v-61h129q35 0 35 -36z" />
    <glyph glyph-name="uni00B2" unicode="&#xb2;" horiz-adv-x="744" 
d="M680 477q0 -124 -208 -124h-183q-120 0 -120 -36v-74h470q41 0 41 -41q0 -38 -41 -38h-536q-39 0 -39 34v118q0 117 240 117h178q93 0 93 35v46q0 34 -87 34h-137q-46 0 -46 40q0 39 46 39h126q203 0 203 -122v-28z" />
    <glyph glyph-name="uni00B3" unicode="&#xb3;" horiz-adv-x="753" 
d="M551 351l4 -1q-3 0 -3 1h-1zM689 486q0 -54 -74 -83q74 -29 74 -89v-25q0 -125 -233 -125h-345q-47 0 -47 38q0 41 47 41h360q113 0 113 43v42q0 12 -29 23h-3q-36 9 -78 9h-363q-47 0 -47 40q0 41 47 41h363q22 0 39.5 2.5t34.5 4.5h1q35 11 35 26v42q0 32 -111 32h-106
q-47 0 -47 40q0 39 47 39h83q239 0 239 -114v-27z" />
    <glyph glyph-name="acute" unicode="&#xb4;" horiz-adv-x="267" 
d="M73 530h-1q-13 -10 -22 -10q-33 0 -33 30q0 6 2 11.5t8 8.5l167 142q11 11 27 11q30 0 30 -29q0 -12 -10 -25z" />
    <glyph glyph-name="mu" unicode="&#xb5;" horiz-adv-x="931" 
d="M70 449q0 37 51 37q48 0 48 -37v-376h428q163 0 163 66v310q0 37 49 37q50 0 50 -37v-310q0 -139 -281 -139h-409v-95q0 -41 -49 -41q-50 0 -50 41v544z" />
    <glyph glyph-name="paragraph" unicode="&#xb6;" horiz-adv-x="858" 
d="M167 487q0 -70 115 -70h398v135h-405q-108 0 -108 -65zM734 -5q-54 0 -54 40v305h-181v-305q0 -39 -54 -39q-55 0 -55 39v305h-93q-233 0 -233 147q0 140 228 140h463q33 0 33 -31v-561q0 -40 -54 -40z" />
    <glyph glyph-name="periodcentered" unicode="&#xb7;" horiz-adv-x="247" 
d="M194 259q0 -47 -71 -47q-70 0 -70 47q0 46 70 46q71 0 71 -46z" />
    <glyph glyph-name="cedilla" unicode="&#xb8;" horiz-adv-x="282" 
d="M266 -40q0 -113 -124 -113h-90q-35 0 -35 32q0 33 35 33h92q45 0 45 49v30q0 35 39 35q38 0 38 -35v-31z" />
    <glyph glyph-name="uni00B9" unicode="&#xb9;" horiz-adv-x="233" 
d="M168 201q0 -40 -51 -40q-53 0 -53 40v388q0 40 53 40q51 0 51 -40v-388z" />
    <glyph glyph-name="ordmasculine" unicode="&#xba;" horiz-adv-x="585" 
d="M454 517q0 35 -89 35h-148q-96 0 -96 -39v-108q0 -37 97 -37h149q87 0 87 37v112zM525 405q0 -91 -169 -91h-131q-172 0 -172 91v108q0 92 174 92h129q169 0 169 -92v-108z" />
    <glyph glyph-name="guillemotright" unicode="&#xbb;" horiz-adv-x="669" 
d="M403 100q-18 -9 -29 -9q-21 0 -34 13t-13 29q0 22 20 34l184 110l-184 107q-11 6 -15.5 15.5t-4.5 18.5q0 17 12.5 31t34.5 14q5 -2 13 -3.5t16 -6.5l232 -143q10 -6 14.5 -15.5t4.5 -18.5q0 -24 -21 -33zM89 100q-15 -9 -29 -9q-19 0 -31.5 13t-12.5 29q0 22 20 34
l184 110l-184 107q-14 6 -17.5 16t-3.5 18q0 17 12.5 31t32.5 14q13 0 29 -10l233 -143q10 -6 14.5 -15.5t4.5 -18.5q0 -24 -20 -33z" />
    <glyph glyph-name="onequarter" unicode="&#xbc;" horiz-adv-x="1663" 
d="M169 201q0 -40 -51 -40q-54 0 -54 40v388q0 40 55 40q50 0 50 -40v-388zM266 -1q-15 -12 -32 -12q-45 0 -45 42q0 21 13 30l690 565q17 14 38 14q52 0 52 -42q0 -18 -17 -32zM1599 31q0 -40 -52 -40q-53 0 -53 40v78h-497q-27 0 -40 11.5t-13 37.5v261q0 40 51 40
q52 0 52 -40v-222h447v222q0 40 53 40q52 0 52 -40v-388z" />
    <glyph glyph-name="onehalf" unicode="&#xbd;" horiz-adv-x="1485" 
d="M169 201q0 -40 -51 -40q-54 0 -54 40v388q0 40 55 40q50 0 50 -40v-388zM247 -1q-17 -12 -31 -12q-47 0 -47 42q0 21 15 30l690 565q8 8 18.5 11t20.5 3q52 0 52 -42q0 -18 -17 -32zM1420 313q0 -123 -208 -123h-183q-119 0 -119 -36v-75h470q40 0 40 -39q0 -40 -40 -40
h-537q-38 0 -38 35v118q0 116 240 116h178q92 0 92 35v45q0 35 -86 35h-139q-45 0 -45 40t45 40h127q203 0 203 -124v-27z" />
    <glyph glyph-name="threequarters" unicode="&#xbe;" horiz-adv-x="2099" 
d="M704 -1q-17 -12 -31 -12q-47 0 -47 42q0 19 12 30l692 565q8 8 18.5 11t21.5 3q50 0 50 -42q0 -20 -15 -32zM2034 33q0 -41 -53 -41q-52 0 -52 41v78h-495q-29 0 -41.5 11t-12.5 38v260q0 41 53 41q49 0 49 -41v-221h447v221q0 41 52 41q53 0 53 -41v-387zM687 486
q0 -56 -65 -83q65 -29 65 -89v-25q0 -125 -233 -125h-345q-45 0 -45 38q0 41 45 41h360q115 0 115 43v42q0 32 -110 32h-365q-45 0 -45 40q0 41 45 41h365q110 0 110 33v42q0 32 -113 32h-105q-48 0 -48 40q0 39 48 39h82q239 0 239 -114v-27z" />
    <glyph glyph-name="questiondown" unicode="&#xbf;" horiz-adv-x="670" 
d="M504 389q0 47 68 47q72 0 72 -47t-71 -47q-69 0 -69 47zM20 51q0 138 299 138h150q51 0 51 44v14q0 46 52 46q48 0 48 -46v-27q0 -104 -190 -104h-132q-91 0 -135.5 -18.5t-44.5 -50.5v-72q0 -89 180 -89h51q38 0 38 -36q0 -38 -53 -38h-18q-296 2 -296 161v78z" />
    <glyph glyph-name="Agrave" unicode="&#xc0;" horiz-adv-x="1110" 
d="M310 247h487l-241 305zM862 170h-615l-129 -154q-8 -10 -20 -15.5t-21 -5.5q-21 0 -38.5 12.5t-17.5 31.5q0 11 8 22l452 539q14 17 33.5 25t39.5 8q42 0 71 -33l454 -538q9 -12 9 -24q0 -17 -16 -29t-37 -12q-25 0 -42 20zM663 711q8 -6 8 -17t-11 -20.5t-25 -9.5
q-15 0 -22 9l-169 140q-6 4 -6 21q0 12 8 21.5t22 9.5q3 -2 9.5 -3t14.5 -8z" />
    <glyph glyph-name="Aacute" unicode="&#xc1;" horiz-adv-x="1110" 
d="M310 247h487l-241 305zM862 170h-615l-129 -154q-8 -10 -20 -15.5t-21 -5.5q-21 0 -38.5 12.5t-17.5 31.5q0 11 8 22l452 539q14 17 33.5 25t39.5 8q42 0 71 -33l454 -538q9 -12 9 -24q0 -17 -16 -29t-37 -12q-25 0 -42 20zM494 672h-1q-13 -10 -22 -10q-33 0 -33 30
q0 6 2 11.5t8 8.5l167 142q11 11 27 11q30 0 30 -29q0 -12 -10 -25z" />
    <glyph glyph-name="Acircumflex" unicode="&#xc2;" horiz-adv-x="1110" 
d="M310 247h487l-241 305zM862 170h-615l-129 -154q-8 -10 -20 -15.5t-21 -5.5q-21 0 -38.5 12.5t-17.5 31.5q0 11 8 22l452 539q14 17 33.5 25t39.5 8q42 0 71 -33l454 -538q9 -12 9 -24q0 -17 -16 -29t-37 -12q-25 0 -42 20zM747 711q12 -14 12 -22q0 -13 -11.5 -23
t-23.5 -10t-22 10l-146 121l-146 -122q-14 -9 -23 -9q-14 0 -24.5 10t-10.5 24q0 12 6 18l161 134q14 13 37 14q21 0 38 -14z" />
    <glyph glyph-name="Atilde" unicode="&#xc3;" horiz-adv-x="1110" 
d="M310 247h487l-241 305zM862 170h-615l-129 -154q-8 -10 -20 -15.5t-21 -5.5q-21 0 -38.5 12.5t-17.5 31.5q0 11 8 22l452 539q14 17 33.5 25t39.5 8q42 0 71 -33l454 -538q9 -12 9 -24q0 -17 -16 -29t-37 -12q-25 0 -42 20zM342 697q-41 0 -41 33q0 37 41 37h422
q45 0 45 -35t-45 -35h-422z" />
    <glyph glyph-name="Adieresis" unicode="&#xc4;" horiz-adv-x="1110" 
d="M310 247h487l-241 305zM862 170h-615l-129 -154q-8 -10 -20 -15.5t-21 -5.5q-21 0 -38.5 12.5t-17.5 31.5q0 11 8 22l452 539q14 17 33.5 25t39.5 8q42 0 71 -33l454 -538q9 -12 9 -24q0 -17 -16 -29t-37 -12q-25 0 -42 20zM504 734q0 -42 -62 -42q-59 0 -59 42
q0 41 59 41q62 0 62 -41zM727 734q0 -42 -62 -42q-61 0 -61 42q0 41 61 41q62 0 62 -41z" />
    <glyph glyph-name="Aring" unicode="&#xc5;" horiz-adv-x="1110" 
d="M310 247h487l-241 305zM862 170h-615l-129 -154q-8 -10 -20 -15.5t-21 -5.5q-21 0 -38.5 12.5t-17.5 31.5q0 11 8 22l452 539q14 17 33.5 25t39.5 8q42 0 71 -33l454 -538q9 -12 9 -24q0 -17 -16 -29t-37 -12q-25 0 -42 20zM610 781q0 24 -15.5 38.5t-40.5 14.5
q-23 0 -39.5 -14.5t-16.5 -38.5q0 -19 16.5 -34.5t39.5 -15.5q25 0 40.5 15.5t15.5 34.5zM665 781q0 -21 -9 -40t-24.5 -33t-35.5 -22.5t-42 -8.5q-24 0 -44 8.5t-34 23t-22 33.5t-8 39q0 23 8.5 42.5t23.5 34t34.5 22.5t41.5 8t42.5 -8t35.5 -22.5t24 -34t9 -42.5z" />
    <glyph glyph-name="AE" unicode="&#xc6;" horiz-adv-x="1243" 
d="M396 349h216v203h-45zM664 0q-52 0 -52 38v234h-279l-215 -256q-8 -10 -17.5 -15.5t-21.5 -5.5q-20 0 -39 13t-19 32q0 9 8 20l453 540q22 27 73 27h338q35 0 35 -39q0 -36 -35 -36h-174v-203h427q35 0 35 -39q0 -38 -35 -38h-427v-197h427q37 0 37 -37q0 -38 -37 -38
h-482z" />
    <glyph glyph-name="Ccedilla" unicode="&#xc7;" horiz-adv-x="922" 
d="M374 552q-205 0 -205 -73v-319q0 -85 223 -85h434q38 0 38 -37q0 -38 -38 -38h-269v-40q0 -113 -124 -113h-90q-36 0 -36 32q0 33 36 33h92q45 0 45 49v39h-104q-312 0 -312 157v322q0 148 305 148h457q38 0 38 -38q0 -37 -38 -37h-452z" />
    <glyph glyph-name="Egrave" unicode="&#xc8;" horiz-adv-x="970" 
d="M173 349h699q36 0 36 -39q0 -38 -36 -38h-699v-117q0 -80 197 -80h502q37 0 37 -37q0 -38 -37 -38h-506q-302 0 -302 151v321q0 155 312 155h139q37 0 37 -39q0 -36 -37 -36h-95q-247 0 -247 -80v-123zM504 711q8 -6 8 -17t-11 -20.5t-25 -9.5q-15 0 -22 9l-169 140
q-6 4 -6 21q0 12 8 21.5t22 9.5q3 -2 9.5 -3t14.5 -8z" />
    <glyph glyph-name="Eacute" unicode="&#xc9;" horiz-adv-x="970" 
d="M173 349h699q36 0 36 -39q0 -38 -36 -38h-699v-117q0 -80 197 -80h502q37 0 37 -37q0 -38 -37 -38h-506q-302 0 -302 151v321q0 155 312 155h139q37 0 37 -39q0 -36 -37 -36h-95q-247 0 -247 -80v-123zM334 672h-1q-13 -10 -22 -10q-33 0 -33 30q0 6 2 11.5t8 8.5
l167 142q11 11 27 11q30 0 30 -29q0 -12 -10 -25z" />
    <glyph glyph-name="Ecircumflex" unicode="&#xca;" horiz-adv-x="970" 
d="M173 349h699q36 0 36 -39q0 -38 -36 -38h-699v-117q0 -80 197 -80h502q37 0 37 -37q0 -38 -37 -38h-506q-302 0 -302 151v321q0 155 312 155h139q37 0 37 -39q0 -36 -37 -36h-95q-247 0 -247 -80v-123zM587 711q12 -14 12 -22q0 -13 -11.5 -23t-23.5 -10t-22 10l-146 121
l-146 -122q-14 -9 -23 -9q-14 0 -24.5 10t-10.5 24q0 12 6 18l161 134q14 13 37 14q21 0 38 -14z" />
    <glyph glyph-name="Edieresis" unicode="&#xcb;" horiz-adv-x="970" 
d="M173 349h699q36 0 36 -39q0 -38 -36 -38h-699v-117q0 -80 197 -80h502q37 0 37 -37q0 -38 -37 -38h-506q-302 0 -302 151v321q0 155 312 155h139q37 0 37 -39q0 -36 -37 -36h-95q-247 0 -247 -80v-123zM344 734q0 -42 -62 -42q-59 0 -59 42q0 41 59 41q62 0 62 -41z
M567 734q0 -42 -62 -42q-61 0 -61 42q0 41 61 41q62 0 62 -41z" />
    <glyph glyph-name="Igrave" unicode="&#xcc;" horiz-adv-x="281" 
d="M195 35q0 -39 -55 -39q-54 0 -54 39v557q0 39 56 39q53 0 53 -39v-557zM249 711q8 -6 8 -17t-11 -20.5t-25 -9.5q-15 0 -22 9l-169 140q-6 4 -6 21q0 12 8 21.5t22 9.5q3 -2 9.5 -3t14.5 -8z" />
    <glyph glyph-name="Iacute" unicode="&#xcd;" horiz-adv-x="281" 
d="M195 35q0 -39 -55 -39q-54 0 -54 39v557q0 39 56 39q53 0 53 -39v-557zM79 672h-1q-13 -10 -22 -10q-33 0 -33 30q0 6 2 11.5t8 8.5l167 142q11 11 27 11q30 0 30 -29q0 -12 -10 -25z" />
    <glyph glyph-name="Icircumflex" unicode="&#xce;" horiz-adv-x="281" 
d="M195 35q0 -39 -55 -39q-54 0 -54 39v557q0 39 56 39q53 0 53 -39v-557zM333 711q12 -14 12 -22q0 -13 -11.5 -23t-23.5 -10t-22 10l-146 121l-146 -122q-14 -9 -23 -9q-14 0 -24.5 10t-10.5 24q0 12 6 18l161 134q14 13 37 14q21 0 38 -14z" />
    <glyph glyph-name="Idieresis" unicode="&#xcf;" horiz-adv-x="281" 
d="M195 35q0 -39 -55 -39q-54 0 -54 39v557q0 39 56 39q53 0 53 -39v-557zM91 734q0 -42 -62 -42q-59 0 -59 42q0 41 59 41q62 0 62 -41zM314 734q0 -42 -62 -42q-61 0 -61 42q0 41 61 41q62 0 62 -41z" />
    <glyph glyph-name="Eth" unicode="&#xd0;" horiz-adv-x="1074" 
d="M40 289q-40 0 -40 33q0 35 40 35h35v239q0 31 34 31h600q300 0 300 -155v-308q0 -164 -302 -164h-598q-34 0 -34 31v258h-35zM904 472q0 80 -197 80h-523v-195h273q35 0 35 -33q0 -35 -35 -35h-273v-214h521q199 0 199 89v308z" />
    <glyph glyph-name="Ntilde" unicode="&#xd1;" horiz-adv-x="1078" 
d="M1003 57q0 -31 -19 -46.5t-46 -15.5q-17 0 -28.5 5t-24.5 14l-706 501v-480q0 -40 -51 -40q-53 0 -53 40v537q0 30 20.5 43.5t46.5 13.5q14 0 29.5 -4t26.5 -14l700 -492v473q0 39 53 39q52 0 52 -39v-535zM326 697q-41 0 -41 33q0 37 41 37h422q45 0 45 -35t-45 -35
h-422z" />
    <glyph glyph-name="Ograve" unicode="&#xd2;" horiz-adv-x="1032" 
d="M863 458q0 94 -198 94h-283q-209 0 -209 -94v-293q0 -90 209 -90h277q204 0 204 90v293zM968 164q0 -164 -341 -164h-221q-342 0 -342 162v301q0 164 342 164h221q341 0 341 -164v-299zM625 711q8 -6 8 -17t-11 -20.5t-25 -9.5q-15 0 -22 9l-169 140q-6 4 -6 21
q0 12 8 21.5t22 9.5q3 -2 9.5 -3t14.5 -8z" />
    <glyph glyph-name="Oacute" unicode="&#xd3;" horiz-adv-x="1032" 
d="M863 458q0 94 -198 94h-283q-209 0 -209 -94v-293q0 -90 209 -90h277q204 0 204 90v293zM968 164q0 -164 -341 -164h-221q-342 0 -342 162v301q0 164 342 164h221q341 0 341 -164v-299zM455 672h-1q-13 -10 -22 -10q-33 0 -33 30q0 6 2 11.5t8 8.5l167 142q11 11 27 11
q30 0 30 -29q0 -12 -10 -25z" />
    <glyph glyph-name="Ocircumflex" unicode="&#xd4;" horiz-adv-x="1032" 
d="M863 458q0 94 -198 94h-283q-209 0 -209 -94v-293q0 -90 209 -90h277q204 0 204 90v293zM968 164q0 -164 -341 -164h-221q-342 0 -342 162v301q0 164 342 164h221q341 0 341 -164v-299zM708 711q12 -14 12 -22q0 -13 -11.5 -23t-23.5 -10t-22 10l-146 121l-146 -122
q-14 -9 -23 -9q-14 0 -24.5 10t-10.5 24q0 12 6 18l161 134q14 13 37 14q21 0 38 -14z" />
    <glyph glyph-name="Otilde" unicode="&#xd5;" horiz-adv-x="1032" 
d="M863 458q0 94 -198 94h-283q-209 0 -209 -94v-293q0 -90 209 -90h277q204 0 204 90v293zM968 164q0 -164 -341 -164h-221q-342 0 -342 162v301q0 164 342 164h221q341 0 341 -164v-299zM303 697q-41 0 -41 33q0 37 41 37h422q45 0 45 -35t-45 -35h-422z" />
    <glyph glyph-name="Odieresis" unicode="&#xd6;" horiz-adv-x="1032" 
d="M863 458q0 94 -198 94h-283q-209 0 -209 -94v-293q0 -90 209 -90h277q204 0 204 90v293zM968 164q0 -164 -341 -164h-221q-342 0 -342 162v301q0 164 342 164h221q341 0 341 -164v-299zM465 734q0 -42 -62 -42q-59 0 -59 42q0 41 59 41q62 0 62 -41zM688 734
q0 -42 -62 -42q-61 0 -61 42q0 41 61 41q62 0 62 -41z" />
    <glyph glyph-name="multiply" unicode="&#xd7;" horiz-adv-x="405" 
d="M34 160q0 15 13 25l91 74l-91 75q-13 7 -13 26q0 15 11.5 26t29.5 11q13 -1 28 -12l94 -75h7l96 76q7 6 15 8.5t14 3.5q17 0 29.5 -11t12.5 -25q0 -20 -12 -27l-96 -76l96 -76q12 -8 12 -25t-14 -27t-31 -10q-12 0 -26 11l-96 76h-7l-94 -75q-14 -11 -25 -11
q-20 0 -32 10.5t-12 27.5z" />
    <glyph glyph-name="Oslash" unicode="&#xd8;" horiz-adv-x="1113" 
d="M198 177q0 -21 3 -28l583 397q-12 6 -93 6h-283q-210 0 -210 -94v-281zM888 458q0 20 -13 42l-605 -410q19 -7 53 -11t85 -4h276q204 0 204 90v293zM993 164q0 -164 -340 -164h-222q-342 0 -342 162v301q0 164 342 164h222q340 0 340 -164v-299z" />
    <glyph glyph-name="Ugrave" unicode="&#xd9;" horiz-adv-x="1064" 
d="M994 172q0 -172 -384 -172h-177q-363 0 -363 172v420q0 39 53 39q54 0 54 -39v-413q0 -104 238 -104h213q259 0 259 104v413q0 39 54 39q53 0 53 -39v-420zM640 711q8 -6 8 -17t-11 -20.5t-25 -9.5q-15 0 -22 9l-169 140q-6 4 -6 21q0 12 8 21.5t22 9.5q3 -2 9.5 -3
t14.5 -8z" />
    <glyph glyph-name="Uacute" unicode="&#xda;" horiz-adv-x="1064" 
d="M994 172q0 -172 -384 -172h-177q-363 0 -363 172v420q0 39 53 39q54 0 54 -39v-413q0 -104 238 -104h213q259 0 259 104v413q0 39 54 39q53 0 53 -39v-420zM471 672h-1q-13 -10 -22 -10q-33 0 -33 30q0 6 2 11.5t8 8.5l167 142q11 11 27 11q30 0 30 -29q0 -12 -10 -25z
" />
    <glyph glyph-name="Ucircumflex" unicode="&#xdb;" horiz-adv-x="1064" 
d="M994 172q0 -172 -384 -172h-177q-363 0 -363 172v420q0 39 53 39q54 0 54 -39v-413q0 -104 238 -104h213q259 0 259 104v413q0 39 54 39q53 0 53 -39v-420zM723 711q12 -14 12 -22q0 -13 -11.5 -23t-23.5 -10t-22 10l-146 121l-146 -122q-14 -9 -23 -9q-14 0 -24.5 10
t-10.5 24q0 12 6 18l161 134q14 13 37 14q21 0 38 -14z" />
    <glyph glyph-name="Udieresis" unicode="&#xdc;" horiz-adv-x="1064" 
d="M994 172q0 -172 -384 -172h-177q-363 0 -363 172v420q0 39 53 39q54 0 54 -39v-413q0 -104 238 -104h213q259 0 259 104v413q0 39 54 39q53 0 53 -39v-420zM481 734q0 -42 -62 -42q-59 0 -59 42q0 41 59 41q62 0 62 -41zM704 734q0 -42 -62 -42q-61 0 -61 42q0 41 61 41
q62 0 62 -41z" />
    <glyph glyph-name="Yacute" unicode="&#xdd;" horiz-adv-x="930" 
d="M464 337l353 280q20 11 37 11q20 0 37 -11.5t17 -27.5t-13 -26l-375 -298h-3v-231q-3 -39 -52 -39q-54 0 -54 40v230h-2l-375 298q-13 10 -13 25q0 17 17 29t38 12q8 0 17 -2t18 -10zM404 672h-1q-13 -10 -22 -10q-33 0 -33 30q0 6 2 11.5t8 8.5l167 142q11 11 27 11
q30 0 30 -29q0 -12 -10 -25z" />
    <glyph glyph-name="Thorn" unicode="&#xde;" horiz-adv-x="1056" 
d="M903 368q0 72 -190 72h-529v-244h522q197 0 197 74v98zM184 119v-89q-5 -35 -55 -35q-54 0 -54 40v557q0 39 56 39q53 0 53 -39v-77h513q309 0 309 -140v-110q0 -146 -315 -146h-507z" />
    <glyph glyph-name="germandbls" unicode="&#xdf;" horiz-adv-x="945" 
d="M894 144q0 -144 -171 -144h-339q-38 0 -38 37q0 36 38 36h339q78 0 78 66v70q0 53 -78 53h-114q-202 0 -202 121v116q0 54 -62 54h-115q-73 0 -73 -54v-468q0 -39 -44 -39q-43 0 -43 39v468q0 124 160 124h115q147 0 147 -134v-104q0 -52 101 -52h130q171 0 171 -124v-65
z" />
    <glyph glyph-name="agrave" unicode="&#xe0;" horiz-adv-x="961" 
d="M801 264h-508q-134 0 -134 -65v-66q0 -60 142 -60h363q137 0 137 92v99zM897 140q0 -140 -253 -140h-322q-265 0 -265 134v62q0 141 260 141h484q-9 71 -140 71h-133q-33 0 -33 36q0 35 33 35h116q253 0 253 -143v-196zM679 569q8 -6 8 -17t-11 -20.5t-25 -9.5
q-15 0 -22 9l-169 140q-6 4 -6 21q0 12 8 21.5t22 9.5q3 -2 9.5 -3t14.5 -8z" />
    <glyph glyph-name="aacute" unicode="&#xe1;" horiz-adv-x="961" 
d="M801 264h-508q-134 0 -134 -65v-66q0 -60 142 -60h363q137 0 137 92v99zM897 140q0 -140 -253 -140h-322q-265 0 -265 134v62q0 141 260 141h484q-9 71 -140 71h-133q-33 0 -33 36q0 35 33 35h116q253 0 253 -143v-196zM510 530h-1q-13 -10 -22 -10q-33 0 -33 30
q0 6 2 11.5t8 8.5l167 142q11 11 27 11q30 0 30 -29q0 -12 -10 -25z" />
    <glyph glyph-name="acircumflex" unicode="&#xe2;" horiz-adv-x="961" 
d="M801 264h-508q-134 0 -134 -65v-66q0 -60 142 -60h363q137 0 137 92v99zM897 140q0 -140 -253 -140h-322q-265 0 -265 134v62q0 141 260 141h484q-9 71 -140 71h-133q-33 0 -33 36q0 35 33 35h116q253 0 253 -143v-196zM762 569q12 -14 12 -22q0 -13 -11.5 -23t-23.5 -10
t-22 10l-146 121l-146 -122q-14 -9 -23 -9q-14 0 -24.5 10t-10.5 24q0 12 6 18l161 134q14 13 37 14q21 0 38 -14z" />
    <glyph glyph-name="atilde" unicode="&#xe3;" horiz-adv-x="961" 
d="M801 264h-508q-134 0 -134 -65v-66q0 -60 142 -60h363q137 0 137 92v99zM897 140q0 -140 -253 -140h-322q-265 0 -265 134v62q0 141 260 141h484q-9 71 -140 71h-133q-33 0 -33 36q0 35 33 35h116q253 0 253 -143v-196zM358 555q-41 0 -41 33q0 37 41 37h422q45 0 45 -35
t-45 -35h-422z" />
    <glyph glyph-name="adieresis" unicode="&#xe4;" horiz-adv-x="961" 
d="M801 264h-508q-134 0 -134 -65v-66q0 -60 142 -60h363q137 0 137 92v99zM897 140q0 -140 -253 -140h-322q-265 0 -265 134v62q0 141 260 141h484q-9 71 -140 71h-133q-33 0 -33 36q0 35 33 35h116q253 0 253 -143v-196zM520 592q0 -42 -62 -42q-59 0 -59 42q0 41 59 41
q62 0 62 -41zM743 592q0 -42 -62 -42q-61 0 -61 42q0 41 61 41q62 0 62 -41z" />
    <glyph glyph-name="aring" unicode="&#xe5;" horiz-adv-x="961" 
d="M801 264h-508q-134 0 -134 -65v-66q0 -60 142 -60h363q137 0 137 92v99zM897 140q0 -140 -253 -140h-322q-265 0 -265 134v62q0 141 260 141h484q-9 71 -140 71h-133q-33 0 -33 36q0 35 33 35h116q253 0 253 -143v-196zM625 639q0 24 -15.5 38.5t-40.5 14.5
q-23 0 -39.5 -14.5t-16.5 -38.5q0 -19 16.5 -34.5t39.5 -15.5q25 0 40.5 15.5t15.5 34.5zM680 639q0 -21 -9 -40t-24.5 -33t-35.5 -22.5t-42 -8.5q-24 0 -44 8.5t-34 23t-22 33.5t-8 39q0 23 8.5 42.5t23.5 34t34.5 22.5t41.5 8t42.5 -8t35.5 -22.5t24 -34t9 -42.5z" />
    <glyph glyph-name="ae" unicode="&#xe6;" horiz-adv-x="1650" 
d="M1594 236q0 -40 -43 -40h-653v-59q0 -64 175 -64h121q40 0 40 -36q0 -37 -40 -37h-92q-173 0 -247 49q-62 -49 -211 -49h-322q-265 0 -265 134v62q0 141 260 141h484v3q0 68 -140 68h-133q-33 0 -33 36q0 35 33 35h116q148 0 209 -49q70 49 245 49h248q248 0 248 -128
v-115zM159 133q0 -60 142 -60h363q137 0 137 79v112h-508q-134 0 -134 -65v-66zM898 271h601v71q0 66 -131 66h-295q-175 0 -175 -69v-68z" />
    <glyph glyph-name="ccedilla" unicode="&#xe7;" horiz-adv-x="840" 
d="M502 0v-40q0 -113 -124 -113h-89q-36 0 -36 32q0 33 36 33h91q45 0 45 49v39h-68q-293 0 -293 142v197q0 140 266 140h404q46 0 46 -35q0 -36 -46 -36h-420q-152 0 -152 -68v-195q0 -72 174 -72h398q41 0 41 -39q0 -34 -41 -34h-232z" />
    <glyph glyph-name="egrave" unicode="&#xe8;" horiz-adv-x="913" 
d="M161 271h602v71q0 66 -132 66h-294q-176 0 -176 -69v-68zM858 236q0 -40 -43 -40h-654v-59q0 -64 176 -64h121q40 0 40 -36q0 -37 -40 -37h-92q-302 0 -302 148v184q0 147 298 147h248q248 0 248 -128v-115zM565 569q8 -6 8 -17t-11 -20.5t-25 -9.5q-15 0 -22 9l-169 140
q-6 4 -6 21q0 12 8 21.5t22 9.5q3 -2 9.5 -3t14.5 -8z" />
    <glyph glyph-name="eacute" unicode="&#xe9;" horiz-adv-x="913" 
d="M161 271h602v71q0 66 -132 66h-294q-176 0 -176 -69v-68zM858 236q0 -40 -43 -40h-654v-59q0 -64 176 -64h121q40 0 40 -36q0 -37 -40 -37h-92q-302 0 -302 148v184q0 147 298 147h248q248 0 248 -128v-115zM396 530h-1q-13 -10 -22 -10q-33 0 -33 30q0 6 2 11.5t8 8.5
l167 142q11 11 27 11q30 0 30 -29q0 -12 -10 -25z" />
    <glyph glyph-name="ecircumflex" unicode="&#xea;" horiz-adv-x="913" 
d="M161 271h602v71q0 66 -132 66h-294q-176 0 -176 -69v-68zM858 236q0 -40 -43 -40h-654v-59q0 -64 176 -64h121q40 0 40 -36q0 -37 -40 -37h-92q-302 0 -302 148v184q0 147 298 147h248q248 0 248 -128v-115zM648 569q12 -14 12 -22q0 -13 -11.5 -23t-23.5 -10t-22 10
l-146 121l-146 -122q-14 -9 -23 -9q-14 0 -24.5 10t-10.5 24q0 12 6 18l161 134q14 13 37 14q21 0 38 -14z" />
    <glyph glyph-name="edieresis" unicode="&#xeb;" horiz-adv-x="913" 
d="M161 271h602v71q0 66 -132 66h-294q-176 0 -176 -69v-68zM858 236q0 -40 -43 -40h-654v-59q0 -64 176 -64h121q40 0 40 -36q0 -37 -40 -37h-92q-302 0 -302 148v184q0 147 298 147h248q248 0 248 -128v-115zM406 592q0 -42 -62 -42q-59 0 -59 42q0 41 59 41q62 0 62 -41z
M629 592q0 -42 -62 -42q-61 0 -61 42q0 41 61 41q62 0 62 -41z" />
    <glyph glyph-name="igrave" unicode="&#xec;" horiz-adv-x="248" 
d="M173 34q0 -39 -50 -39q-48 0 -48 39v407q0 36 46 36q52 0 52 -36v-407zM234 569q8 -6 8 -17t-11 -20.5t-25 -9.5q-15 0 -22 9l-169 140q-6 4 -6 21q0 12 8 21.5t22 9.5q3 -2 9.5 -3t14.5 -8z" />
    <glyph glyph-name="iacute" unicode="&#xed;" horiz-adv-x="248" 
d="M173 34q0 -39 -50 -39q-48 0 -48 39v407q0 36 46 36q52 0 52 -36v-407zM64 530h-1q-13 -10 -22 -10q-33 0 -33 30q0 6 2 11.5t8 8.5l167 142q11 11 27 11q30 0 30 -29q0 -12 -10 -25z" />
    <glyph glyph-name="icircumflex" unicode="&#xee;" horiz-adv-x="248" 
d="M173 34q0 -39 -50 -39q-48 0 -48 39v407q0 36 46 36q52 0 52 -36v-407zM317 569q12 -14 12 -22q0 -13 -11.5 -23t-23.5 -10t-22 10l-146 121l-146 -122q-14 -9 -23 -9q-14 0 -24.5 10t-10.5 24q0 12 6 18l161 134q14 13 37 14q21 0 38 -14z" />
    <glyph glyph-name="idieresis" unicode="&#xef;" horiz-adv-x="248" 
d="M173 34q0 -39 -50 -39q-48 0 -48 39v407q0 36 46 36q52 0 52 -36v-407zM75 592q0 -42 -62 -42q-59 0 -59 42q0 41 59 41q62 0 62 -41zM298 592q0 -42 -62 -42q-61 0 -61 42q0 41 61 41q62 0 62 -41z" />
    <glyph glyph-name="eth" unicode="&#xf0;" horiz-adv-x="923" 
d="M858 147q0 -147 -312 -147h-196q-286 0 -286 145v190q0 144 314 144h263q33 0 33 -36q0 -35 -38 -35h-279q-196 0 -196 -74v-190q0 -71 171 -71l246 -1q180 -2 180 79v334q0 67 -177 67h-106q-44 0 -44 36q0 35 44 35h90q293 0 293 -151v-325z" />
    <glyph glyph-name="ntilde" unicode="&#xf1;" horiz-adv-x="926" 
d="M856 34q0 -39 -51 -39t-51 39v315q0 59 -155 59h-273q-159 0 -159 -59v-315q0 -39 -47 -39q-50 0 -50 39v315q0 130 285 130h214q287 0 287 -130v-315zM250 555q-41 0 -41 33q0 37 41 37h422q45 0 45 -35t-45 -35h-422z" />
    <glyph glyph-name="ograve" unicode="&#xf2;" horiz-adv-x="914" 
d="M748 339q0 69 -161 69h-251q-175 0 -175 -78v-185q0 -72 176 -72h252q159 0 159 72v194zM850 145q0 -145 -279 -145h-222q-285 0 -285 145v185q0 149 287 149h220q279 0 279 -148v-186zM566 569q8 -6 8 -17t-11 -20.5t-25 -9.5q-15 0 -22 9l-169 140q-6 4 -6 21
q0 12 8 21.5t22 9.5q3 -2 9.5 -3t14.5 -8z" />
    <glyph glyph-name="oacute" unicode="&#xf3;" horiz-adv-x="914" 
d="M748 339q0 69 -161 69h-251q-175 0 -175 -78v-185q0 -72 176 -72h252q159 0 159 72v194zM850 145q0 -145 -279 -145h-222q-285 0 -285 145v185q0 149 287 149h220q279 0 279 -148v-186zM397 530h-1q-13 -10 -22 -10q-33 0 -33 30q0 6 2 11.5t8 8.5l167 142q11 11 27 11
q30 0 30 -29q0 -12 -10 -25z" />
    <glyph glyph-name="ocircumflex" unicode="&#xf4;" horiz-adv-x="914" 
d="M748 339q0 69 -161 69h-251q-175 0 -175 -78v-185q0 -72 176 -72h252q159 0 159 72v194zM850 145q0 -145 -279 -145h-222q-285 0 -285 145v185q0 149 287 149h220q279 0 279 -148v-186zM648 569q12 -14 12 -22q0 -13 -11.5 -23t-23.5 -10t-22 10l-146 121l-146 -122
q-14 -9 -23 -9q-14 0 -24.5 10t-10.5 24q0 12 6 18l161 134q14 13 37 14q21 0 38 -14z" />
    <glyph glyph-name="otilde" unicode="&#xf5;" horiz-adv-x="914" 
d="M748 339q0 69 -161 69h-251q-175 0 -175 -78v-185q0 -72 176 -72h252q159 0 159 72v194zM850 145q0 -145 -279 -145h-222q-285 0 -285 145v185q0 149 287 149h220q279 0 279 -148v-186zM245 555q-41 0 -41 33q0 37 41 37h422q45 0 45 -35t-45 -35h-422z" />
    <glyph glyph-name="odieresis" unicode="&#xf6;" horiz-adv-x="914" 
d="M748 339q0 69 -161 69h-251q-175 0 -175 -78v-185q0 -72 176 -72h252q159 0 159 72v194zM850 145q0 -145 -279 -145h-222q-285 0 -285 145v185q0 149 287 149h220q279 0 279 -148v-186zM407 592q0 -42 -62 -42q-59 0 -59 42q0 41 59 41q62 0 62 -41zM630 592
q0 -42 -62 -42q-61 0 -61 42q0 41 61 41q62 0 62 -41z" />
    <glyph glyph-name="divide" unicode="&#xf7;" horiz-adv-x="561" 
d="M348 385q0 -46 -71 -46q-69 0 -69 46t68 46q72 0 72 -46zM348 136q0 -46 -71 -46q-69 0 -69 46t68 46q72 0 72 -46zM74 227q-40 0 -40 33q0 35 40 35h416q36 0 36 -33q0 -35 -36 -35h-416z" />
    <glyph glyph-name="oslash" unicode="&#xf8;" horiz-adv-x="914" 
d="M748 339q0 13 -7 23l-489 -284q17 -2 38 -3.5t47 -1.5h252q159 0 159 72v194zM161 145q0 -19 12 -31l491 288q-19 2 -37.5 4t-39.5 2h-251q-175 0 -175 -78v-185zM850 145q0 -145 -279 -145h-222q-285 0 -285 145v185q0 149 287 149h220q279 0 279 -148v-186z" />
    <glyph glyph-name="ugrave" unicode="&#xf9;" 
d="M865 139q0 -139 -302 -139h-189q-304 0 -304 139v310q0 38 49 38q48 0 48 -38v-310q0 -66 188 -66h226q184 0 184 64v312q0 37 51 37q49 0 49 -37v-310zM576 569q8 -6 8 -17t-11 -20.5t-25 -9.5q-15 0 -22 9l-169 140q-6 4 -6 21q0 12 8 21.5t22 9.5q3 -2 9.5 -3t14.5 -8
z" />
    <glyph glyph-name="uacute" unicode="&#xfa;" 
d="M865 139q0 -139 -302 -139h-189q-304 0 -304 139v310q0 38 49 38q48 0 48 -38v-310q0 -66 188 -66h226q184 0 184 64v312q0 37 51 37q49 0 49 -37v-310zM407 530h-1q-13 -10 -22 -10q-33 0 -33 30q0 6 2 11.5t8 8.5l167 142q11 11 27 11q30 0 30 -29q0 -12 -10 -25z" />
    <glyph glyph-name="ucircumflex" unicode="&#xfb;" 
d="M865 139q0 -139 -302 -139h-189q-304 0 -304 139v310q0 38 49 38q48 0 48 -38v-310q0 -66 188 -66h226q184 0 184 64v312q0 37 51 37q49 0 49 -37v-310zM659 569q12 -14 12 -22q0 -13 -11.5 -23t-23.5 -10t-22 10l-146 121l-146 -122q-14 -9 -23 -9q-14 0 -24.5 10
t-10.5 24q0 12 6 18l161 134q14 13 37 14q21 0 38 -14z" />
    <glyph glyph-name="udieresis" unicode="&#xfc;" 
d="M865 139q0 -139 -302 -139h-189q-304 0 -304 139v310q0 38 49 38q48 0 48 -38v-310q0 -66 188 -66h226q184 0 184 64v312q0 37 51 37q49 0 49 -37v-310zM417 592q0 -42 -62 -42q-59 0 -59 42q0 41 59 41q62 0 62 -41zM640 592q0 -42 -62 -42q-61 0 -61 42q0 41 61 41
q62 0 62 -41z" />
    <glyph glyph-name="yacute" unicode="&#xfd;" 
d="M859 -5q0 -131 -244 -131h-137q-38 0 -38 36q0 35 38 35h146q139 0 139 60v5h-410q-283 0 -283 139v310q0 37 50 37q47 0 47 -37v-310q0 -66 164 -66h432v376q0 37 47 37q49 0 49 -37v-454zM407 530h-1q-13 -10 -22 -10q-33 0 -33 30q0 6 2 11.5t8 8.5l167 142
q11 11 27 11q30 0 30 -29q0 -12 -10 -25z" />
    <glyph glyph-name="thorn" unicode="&#xfe;" horiz-adv-x="934" 
d="M768 340q0 68 -178 68h-244q-174 0 -174 -69v-266h449q147 0 147 71v196zM869 144q0 -144 -268 -144h-429v-109q0 -39 -48 -39q-49 0 -49 39v701q0 39 49 39q48 0 48 -39v-144q74 31 188 31h210q299 0 299 -137v-198z" />
    <glyph glyph-name="ydieresis" unicode="&#xff;" 
d="M859 -5q0 -131 -244 -131h-137q-38 0 -38 36q0 35 38 35h146q139 0 139 60v5h-410q-283 0 -283 139v310q0 37 50 37q47 0 47 -37v-310q0 -66 164 -66h432v376q0 37 47 37q49 0 49 -37v-454zM417 592q0 -42 -62 -42q-59 0 -59 42q0 41 59 41q62 0 62 -41zM640 592
q0 -42 -62 -42q-61 0 -61 42q0 41 61 41q62 0 62 -41z" />
    <glyph glyph-name="Amacron" unicode="&#x100;" horiz-adv-x="1110" 
d="M310 247h487l-241 305zM862 170h-615l-129 -154q-8 -10 -20 -15.5t-21 -5.5q-21 0 -38.5 12.5t-17.5 31.5q0 11 8 22l452 539q14 17 33.5 25t39.5 8q42 0 71 -33l454 -538q9 -12 9 -24q0 -17 -16 -29t-37 -12q-25 0 -42 20zM346 694q-45 0 -45 36q0 39 45 39h417
q46 0 46 -37q0 -38 -46 -38h-417z" />
    <glyph glyph-name="amacron" unicode="&#x101;" horiz-adv-x="961" 
d="M801 264h-508q-134 0 -134 -65v-66q0 -60 142 -60h363q137 0 137 92v99zM897 140q0 -140 -253 -140h-322q-265 0 -265 134v62q0 141 260 141h484q-9 71 -140 71h-133q-33 0 -33 36q0 35 33 35h116q253 0 253 -143v-196zM362 552q-45 0 -45 36q0 39 45 39h417q46 0 46 -37
q0 -38 -46 -38h-417z" />
    <glyph glyph-name="Abreve" unicode="&#x102;" horiz-adv-x="1110" 
d="M310 247h487l-241 305zM862 170h-615l-129 -154q-8 -10 -20 -15.5t-21 -5.5q-21 0 -38.5 12.5t-17.5 31.5q0 11 8 22l452 539q14 17 33.5 25t39.5 8q42 0 71 -33l454 -538q9 -12 9 -24q0 -17 -16 -29t-37 -12q-25 0 -42 20zM358 798q-7 7 -7 17q0 14 11 24t26 10
q11 0 19 -11h1q81 -87 147 -87q36 0 69 21.5t74 65.5q14 11 24 11q13 0 24.5 -10t11.5 -24q0 -13 -6 -17q-57 -54 -102.5 -81.5t-94.5 -27.5q-46 0 -93 26t-104 83z" />
    <glyph glyph-name="abreve" unicode="&#x103;" horiz-adv-x="961" 
d="M801 264h-508q-134 0 -134 -65v-66q0 -60 142 -60h363q137 0 137 92v99zM897 140q0 -140 -253 -140h-322q-265 0 -265 134v62q0 141 260 141h484q-9 71 -140 71h-133q-33 0 -33 36q0 35 33 35h116q253 0 253 -143v-196zM374 656q-7 7 -7 17q0 14 11 24t26 10q11 0 19 -11
h1q81 -87 147 -87q36 0 69 21.5t74 65.5q14 11 24 11q13 0 24.5 -10t11.5 -24q0 -13 -6 -17q-57 -54 -102.5 -81.5t-94.5 -27.5q-46 0 -93 26t-104 83z" />
    <glyph glyph-name="Aogonek" unicode="&#x104;" horiz-adv-x="1110" 
d="M1016 1q-15 4 -23 16l-131 153h-615l-129 -154q-8 -10 -20 -15.5t-21 -5.5q-21 0 -38.5 12.5t-17.5 31.5q0 11 8 22l452 539q14 17 33.5 25t39.5 8q42 0 71 -33l454 -538q9 -12 9 -24q0 -17 -12 -27l-45 -53q-7 -8 -9 -14.5t-2 -12.5q0 -19 31 -19h41q36 0 36 -33
q0 -32 -36 -32h-54q-42 0 -64 10.5t-22 40.5q0 17 6.5 30t22.5 32zM310 247h487l-241 305z" />
    <glyph glyph-name="aogonek" unicode="&#x105;" horiz-adv-x="961" 
d="M897 140q0 -27 -10.5 -47.5t-27.5 -39.5l-86 -95q-6 -8 -8 -14.5t-2 -12.5q0 -19 29 -19h42q36 0 36 -33q0 -32 -36 -32h-55q-40 0 -62 10.5t-22 40.5q0 16 6 30t22 32l46 52q-26 -6 -56.5 -9t-68.5 -3h-322q-265 0 -265 134v62q0 141 260 141h484q-9 71 -140 71h-133
q-33 0 -33 36q0 35 33 35h116q253 0 253 -143v-196zM801 264h-508q-134 0 -134 -65v-66q0 -60 142 -60h363q137 0 137 92v99z" />
    <glyph glyph-name="Cacute" unicode="&#x106;" horiz-adv-x="922" 
d="M374 552q-205 0 -205 -73v-319q0 -85 223 -85h434q38 0 38 -37q0 -38 -38 -38h-450q-312 0 -312 157v322q0 148 305 148h457q38 0 38 -38q0 -37 -38 -37h-452zM446 672h-1q-13 -10 -22 -10q-33 0 -33 30q0 6 2 11.5t8 8.5l167 142q11 11 27 11q30 0 30 -29q0 -12 -10 -25
z" />
    <glyph glyph-name="cacute" unicode="&#x107;" horiz-adv-x="840" 
d="M357 0q-293 0 -293 142v197q0 140 266 140h404q46 0 46 -35q0 -36 -46 -36h-420q-152 0 -152 -68v-195q0 -72 174 -72h398q41 0 41 -39q0 -34 -41 -34h-377zM404 530h-1q-13 -10 -22 -10q-33 0 -33 30q0 6 2 11.5t8 8.5l167 142q11 11 27 11q30 0 30 -29q0 -12 -10 -25z
" />
    <glyph glyph-name="Ccircumflex" unicode="&#x108;" horiz-adv-x="922" 
d="M374 552q-205 0 -205 -73v-319q0 -85 223 -85h434q38 0 38 -37q0 -38 -38 -38h-450q-312 0 -312 157v322q0 148 305 148h457q38 0 38 -38q0 -37 -38 -37h-452zM697 711q12 -14 12 -22q0 -13 -11.5 -23t-23.5 -10t-22 10l-146 121l-146 -122q-14 -9 -23 -9q-14 0 -24.5 10
t-10.5 24q0 12 6 18l161 134q14 13 37 14q21 0 38 -14z" />
    <glyph glyph-name="ccircumflex" unicode="&#x109;" horiz-adv-x="840" 
d="M357 0q-293 0 -293 142v197q0 140 266 140h404q46 0 46 -35q0 -36 -46 -36h-420q-152 0 -152 -68v-195q0 -72 174 -72h398q41 0 41 -39q0 -34 -41 -34h-377zM657 569q12 -14 12 -22q0 -13 -11.5 -23t-23.5 -10t-22 10l-146 121l-146 -122q-14 -9 -23 -9q-14 0 -24.5 10
t-10.5 24q0 12 6 18l161 134q14 13 37 14q21 0 38 -14z" />
    <glyph glyph-name="Cdotaccent" unicode="&#x10a;" horiz-adv-x="922" 
d="M374 552q-205 0 -205 -73v-319q0 -85 223 -85h434q38 0 38 -37q0 -38 -38 -38h-450q-312 0 -312 157v322q0 148 305 148h457q38 0 38 -38q0 -37 -38 -37h-452zM576 767q0 -47 -71 -47q-69 0 -69 47q0 45 69 45q71 0 71 -45z" />
    <glyph glyph-name="cdotaccent" unicode="&#x10b;" horiz-adv-x="840" 
d="M357 0q-293 0 -293 142v197q0 140 266 140h404q46 0 46 -35q0 -36 -46 -36h-420q-152 0 -152 -68v-195q0 -72 174 -72h398q41 0 41 -39q0 -34 -41 -34h-377zM535 625q0 -47 -71 -47q-69 0 -69 47q0 45 69 45q71 0 71 -45z" />
    <glyph glyph-name="Ccaron" unicode="&#x10c;" horiz-adv-x="922" 
d="M374 552q-205 0 -205 -73v-319q0 -85 223 -85h434q38 0 38 -37q0 -38 -38 -38h-450q-312 0 -312 157v322q0 148 305 148h457q38 0 38 -38q0 -37 -38 -37h-452zM315 792q-8 6 -11 12.5t-3 11.5q0 14 11 23.5t25 9.5q7 0 21 -11l142 -117h7l143 118q10 10 21 10
q14 0 26.5 -10t12.5 -24q0 -11 -8 -17l-160 -135q-18 -16 -35 -14q-14 0 -23 3.5t-17 10.5z" />
    <glyph glyph-name="ccaron" unicode="&#x10d;" horiz-adv-x="840" 
d="M357 0q-293 0 -293 142v197q0 140 266 140h404q46 0 46 -35q0 -36 -46 -36h-420q-152 0 -152 -68v-195q0 -72 174 -72h398q41 0 41 -39q0 -34 -41 -34h-377zM275 650q-8 6 -11 12.5t-3 11.5q0 14 11 23.5t25 9.5q7 0 21 -11l142 -117h7l143 118q10 10 21 10
q14 0 26.5 -10t12.5 -24q0 -11 -8 -17l-160 -135q-18 -16 -35 -14q-14 0 -23 3.5t-17 10.5z" />
    <glyph glyph-name="Dcaron" unicode="&#x10e;" horiz-adv-x="1074" 
d="M904 472q0 80 -197 80h-523v-477h521q199 0 199 89v308zM1009 164q0 -164 -302 -164h-598q-34 0 -34 31v565q0 31 34 31h600q300 0 300 -155v-308zM301 792q-8 6 -11 12.5t-3 11.5q0 14 11 23.5t25 9.5q7 0 21 -11l142 -117h7l143 118q10 10 21 10q14 0 26.5 -10
t12.5 -24q0 -11 -8 -17l-160 -135q-18 -16 -35 -14q-14 0 -23 3.5t-17 10.5z" />
    <glyph glyph-name="dcaron" unicode="&#x10f;" horiz-adv-x="1018" 
d="M770 407h-433q-176 0 -176 -86v-171q0 -77 170 -77h251q188 0 188 77v257zM868 140q0 -140 -303 -140h-204q-297 0 -297 132v200q0 147 296 147h410v113q0 39 48 39q50 0 50 -39v-452zM983 484q-5 -14 -17.5 -20.5t-26.5 -6.5q-11 0 -19 6t-8 17v5l26 115q5 16 18.5 23.5
t27.5 7.5q16 0 25.5 -6t9.5 -20q0 -2 -0.5 -4.5t-0.5 -3.5z" />
    <glyph glyph-name="Dcroat" unicode="&#x110;" horiz-adv-x="1074" 
d="M40 289q-40 0 -40 33q0 35 40 35h35v239q0 31 34 31h600q300 0 300 -155v-308q0 -164 -302 -164h-598q-34 0 -34 31v258h-35zM904 472q0 80 -197 80h-523v-195h273q35 0 35 -33q0 -35 -35 -35h-273v-214h521q199 0 199 89v308z" />
    <glyph glyph-name="dcroat" unicode="&#x111;" horiz-adv-x="937" 
d="M868 516v-376q0 -140 -303 -140h-204q-297 0 -297 132v200q0 147 296 147h410v37h-296q-46 0 -46 36q0 39 46 39h296q0 40 48 40q50 0 50 -40h23q46 0 46 -37q0 -38 -46 -38h-23zM770 407h-433q-176 0 -176 -86v-171q0 -77 170 -77h251q188 0 188 77v257z" />
    <glyph glyph-name="Emacron" unicode="&#x112;" horiz-adv-x="970" 
d="M173 349h699q36 0 36 -39q0 -38 -36 -38h-699v-117q0 -80 197 -80h502q37 0 37 -37q0 -38 -37 -38h-506q-302 0 -302 151v321q0 155 312 155h139q37 0 37 -39q0 -36 -37 -36h-95q-247 0 -247 -80v-123zM186 694q-45 0 -45 36q0 39 45 39h417q46 0 46 -37q0 -38 -46 -38
h-417z" />
    <glyph glyph-name="emacron" unicode="&#x113;" horiz-adv-x="913" 
d="M161 271h602v71q0 66 -132 66h-294q-176 0 -176 -69v-68zM858 236q0 -40 -43 -40h-654v-59q0 -64 176 -64h121q40 0 40 -36q0 -37 -40 -37h-92q-302 0 -302 148v184q0 147 298 147h248q248 0 248 -128v-115zM248 552q-45 0 -45 36q0 39 45 39h417q46 0 46 -37
q0 -38 -46 -38h-417z" />
    <glyph glyph-name="Ebreve" unicode="&#x114;" horiz-adv-x="970" 
d="M173 349h699q36 0 36 -39q0 -38 -36 -38h-699v-117q0 -80 197 -80h502q37 0 37 -37q0 -38 -37 -38h-506q-302 0 -302 151v321q0 155 312 155h139q37 0 37 -39q0 -36 -37 -36h-95q-247 0 -247 -80v-123zM198 798q-7 7 -7 17q0 14 11 24t26 10q11 0 19 -11h1
q81 -87 147 -87q36 0 69 21.5t74 65.5q14 11 24 11q13 0 24.5 -10t11.5 -24q0 -13 -6 -17q-57 -54 -102.5 -81.5t-94.5 -27.5q-46 0 -93 26t-104 83z" />
    <glyph glyph-name="ebreve" unicode="&#x115;" horiz-adv-x="913" 
d="M161 271h602v71q0 66 -132 66h-294q-176 0 -176 -69v-68zM858 236q0 -40 -43 -40h-654v-59q0 -64 176 -64h121q40 0 40 -36q0 -37 -40 -37h-92q-302 0 -302 148v184q0 147 298 147h248q248 0 248 -128v-115zM260 656q-7 7 -7 17q0 14 11 24t26 10q11 0 19 -11h1
q81 -87 147 -87q36 0 69 21.5t74 65.5q14 11 24 11q13 0 24.5 -10t11.5 -24q0 -13 -6 -17q-57 -54 -102.5 -81.5t-94.5 -27.5q-46 0 -93 26t-104 83z" />
    <glyph glyph-name="Edotaccent" unicode="&#x116;" horiz-adv-x="970" 
d="M173 349h699q36 0 36 -39q0 -38 -36 -38h-699v-117q0 -80 197 -80h502q37 0 37 -37q0 -38 -37 -38h-506q-302 0 -302 151v321q0 155 312 155h139q37 0 37 -39q0 -36 -37 -36h-95q-247 0 -247 -80v-123zM465 767q0 -47 -71 -47q-69 0 -69 47q0 45 69 45q71 0 71 -45z" />
    <glyph glyph-name="edotaccent" unicode="&#x117;" horiz-adv-x="913" 
d="M161 271h602v71q0 66 -132 66h-294q-176 0 -176 -69v-68zM858 236q0 -40 -43 -40h-654v-59q0 -64 176 -64h121q40 0 40 -36q0 -37 -40 -37h-92q-302 0 -302 148v184q0 147 298 147h248q248 0 248 -128v-115zM527 625q0 -47 -71 -47q-69 0 -69 47q0 45 69 45q71 0 71 -45z
" />
    <glyph glyph-name="Eogonek" unicode="&#x118;" horiz-adv-x="970" 
d="M173 349h699q36 0 36 -39q0 -38 -36 -38h-699v-117q0 -80 197 -80h462q36 0 36 -37q0 -14 -7 -23t-17 -20l-33 -37q-8 -9 -10 -15t-1 -12q0 -19 30 -19h42q36 0 36 -33q0 -32 -36 -32h-55q-40 0 -63 10.5t-23 40.5q0 16 7 30t23 32l35 40h-430q-302 0 -302 151v321
q0 155 312 155h139q37 0 37 -39q0 -36 -37 -36h-95q-247 0 -247 -80v-123z" />
    <glyph glyph-name="eogonek" unicode="&#x119;" horiz-adv-x="913" 
d="M509 0h-143q-302 0 -302 148v184q0 147 298 147h248q248 0 248 -128v-115q0 -40 -43 -40h-654v-59q0 -64 176 -64h202q40 0 40 -36q0 -6 -2.5 -13.5t-5.5 -11.5l-48 -54q-8 -8 -8.5 -15t-1.5 -12q0 -19 30 -19h42q36 0 36 -33q0 -32 -36 -32h-55q-40 0 -62.5 10.5
t-22.5 40.5q0 16 6.5 30t22.5 32zM161 271h602v71q0 66 -132 66h-294q-176 0 -176 -69v-68z" />
    <glyph glyph-name="Ecaron" unicode="&#x11a;" horiz-adv-x="970" 
d="M173 349h699q36 0 36 -39q0 -38 -36 -38h-699v-117q0 -80 197 -80h502q37 0 37 -37q0 -38 -37 -38h-506q-302 0 -302 151v321q0 155 312 155h139q37 0 37 -39q0 -36 -37 -36h-95q-247 0 -247 -80v-123zM205 792q-8 6 -11 12.5t-3 11.5q0 14 11 23.5t25 9.5q7 0 21 -11
l142 -117h7l143 118q10 10 21 10q14 0 26.5 -10t12.5 -24q0 -11 -8 -17l-160 -135q-18 -16 -35 -14q-14 0 -23 3.5t-17 10.5z" />
    <glyph glyph-name="ecaron" unicode="&#x11b;" horiz-adv-x="913" 
d="M161 271h602v71q0 66 -132 66h-294q-176 0 -176 -69v-68zM858 236q0 -40 -43 -40h-654v-59q0 -64 176 -64h121q40 0 40 -36q0 -37 -40 -37h-92q-302 0 -302 148v184q0 147 298 147h248q248 0 248 -128v-115zM266 650q-8 6 -11 12.5t-3 11.5q0 14 11 23.5t25 9.5
q7 0 21 -11l142 -117h7l143 118q10 10 21 10q14 0 26.5 -10t12.5 -24q0 -11 -8 -17l-160 -135q-18 -16 -35 -14q-14 0 -23 3.5t-17 10.5z" />
    <glyph glyph-name="Gcircumflex" unicode="&#x11c;" horiz-adv-x="1059" 
d="M986 154q0 -154 -288 -154h-320q-314 0 -314 153v324q0 150 318 150h124q38 0 38 -38q0 -37 -38 -37h-88q-245 0 -245 -75v-324q0 -78 209 -78h316q181 0 181 75v167q0 38 53 38q54 0 54 -38v-163zM632 711q12 -14 12 -22q0 -13 -11.5 -23t-23.5 -10t-22 10l-146 121
l-146 -122q-14 -9 -23 -9q-14 0 -24.5 10t-10.5 24q0 12 6 18l161 134q14 13 37 14q21 0 38 -14z" />
    <glyph glyph-name="gcircumflex" unicode="&#x11d;" horiz-adv-x="928" 
d="M758 73v255q0 80 -180 80h-246q-171 0 -171 -72v-191q0 -72 196 -72h401zM858 7q0 -143 -293 -143h-90q-44 0 -44 35q0 36 44 36h106q181 0 181 59v6h-384q-314 0 -314 144v190q0 145 286 145h196q312 0 312 -146v-326zM656 569q12 -14 12 -22q0 -13 -11.5 -23t-23.5 -10
t-22 10l-146 121l-146 -122q-14 -9 -23 -9q-14 0 -24.5 10t-10.5 24q0 12 6 18l161 134q14 13 37 14q21 0 38 -14z" />
    <glyph glyph-name="Gbreve" unicode="&#x11e;" horiz-adv-x="1059" 
d="M986 154q0 -154 -288 -154h-320q-314 0 -314 153v324q0 150 318 150h124q38 0 38 -38q0 -37 -38 -37h-88q-245 0 -245 -75v-324q0 -78 209 -78h316q181 0 181 75v167q0 38 53 38q54 0 54 -38v-163zM243 798q-7 7 -7 17q0 14 11 24t26 10q11 0 19 -11h1q81 -87 147 -87
q36 0 69 21.5t74 65.5q14 11 24 11q13 0 24.5 -10t11.5 -24q0 -13 -6 -17q-57 -54 -102.5 -81.5t-94.5 -27.5q-46 0 -93 26t-104 83z" />
    <glyph glyph-name="gbreve" unicode="&#x11f;" horiz-adv-x="928" 
d="M758 73v255q0 80 -180 80h-246q-171 0 -171 -72v-191q0 -72 196 -72h401zM858 7q0 -143 -293 -143h-90q-44 0 -44 35q0 36 44 36h106q181 0 181 59v6h-384q-314 0 -314 144v190q0 145 286 145h196q312 0 312 -146v-326zM267 656q-7 7 -7 17q0 14 11 24t26 10q11 0 19 -11
h1q81 -87 147 -87q36 0 69 21.5t74 65.5q14 11 24 11q13 0 24.5 -10t11.5 -24q0 -13 -6 -17q-57 -54 -102.5 -81.5t-94.5 -27.5q-46 0 -93 26t-104 83z" />
    <glyph glyph-name="Gdotaccent" unicode="&#x120;" horiz-adv-x="1059" 
d="M986 154q0 -154 -288 -154h-320q-314 0 -314 153v324q0 150 318 150h124q38 0 38 -38q0 -37 -38 -37h-88q-245 0 -245 -75v-324q0 -78 209 -78h316q181 0 181 75v167q0 38 53 38q54 0 54 -38v-163zM510 767q0 -47 -71 -47q-69 0 -69 47q0 45 69 45q71 0 71 -45z" />
    <glyph glyph-name="gdotaccent" unicode="&#x121;" horiz-adv-x="928" 
d="M758 73v255q0 80 -180 80h-246q-171 0 -171 -72v-191q0 -72 196 -72h401zM858 7q0 -143 -293 -143h-90q-44 0 -44 35q0 36 44 36h106q181 0 181 59v6h-384q-314 0 -314 144v190q0 145 286 145h196q312 0 312 -146v-326zM534 625q0 -47 -71 -47q-69 0 -69 47q0 45 69 45
q71 0 71 -45z" />
    <glyph glyph-name="uni0122" unicode="&#x122;" horiz-adv-x="1059" 
d="M986 154q0 -154 -288 -154h-320q-314 0 -314 153v324q0 150 318 150h124q38 0 38 -38q0 -37 -38 -37h-88q-245 0 -245 -75v-324q0 -78 209 -78h316q181 0 181 75v167q0 38 53 38q54 0 54 -38v-163zM548 -156q-5 -14 -17.5 -20.5t-26.5 -6.5q-11 0 -19 6t-8 17v5l26 115
q5 16 18.5 23.5t27.5 7.5q16 0 25.5 -6t9.5 -20q0 -2 -0.5 -4.5t-0.5 -3.5z" />
    <glyph glyph-name="uni0123" unicode="&#x123;" horiz-adv-x="928" 
d="M758 73v255q0 80 -180 80h-246q-171 0 -171 -72v-191q0 -72 196 -72h401zM858 7q0 -143 -293 -143h-90q-44 0 -44 35q0 36 44 36h106q181 0 181 59v6h-384q-314 0 -314 144v190q0 145 286 145h196q312 0 312 -146v-326zM485.011 647.99q5 13.999 17.499 20.499
t26.498 6.5q11 0 18.999 -6t7.99902 -16.999v-5l-25.998 -114.992q-5 -16 -18.499 -23.499q-13.499 -7.5 -27.498 -7.5q-15.999 0 -25.498 6q-9.5 6 -9.5 19.999q0 2 0.5 4.5q0.5 2.49902 0.5 3.49902z" />
    <glyph glyph-name="Hcircumflex" unicode="&#x124;" horiz-adv-x="1085" 
d="M1009 35q0 -40 -53 -40q-52 0 -52 40v237h-721v-237q0 -40 -55 -40q-53 0 -53 40v557q0 39 55 39q53 0 53 -39v-243h721v243q0 39 51 39q54 0 54 -39v-557zM734 711q12 -14 12 -22q0 -13 -11.5 -23t-23.5 -10t-22 10l-146 121l-146 -122q-14 -9 -23 -9q-14 0 -24.5 10
t-10.5 24q0 12 6 18l161 134q14 13 37 14q21 0 38 -14z" />
    <glyph glyph-name="hcircumflex" unicode="&#x125;" horiz-adv-x="939" 
d="M869 34q0 -39 -49 -39q-51 0 -51 39v292q0 82 -191 82h-406v-374q0 -39 -48 -39q-49 0 -49 39v558q0 39 49 39q48 0 48 -39v-113h374q323 0 323 -151v-294zM464 711q12 -14 12 -22q0 -13 -11.5 -23t-23.5 -10t-22 10l-146 121l-146 -122q-14 -9 -23 -9q-14 0 -24.5 10
t-10.5 24q0 12 6 18l161 134q14 13 37 14q21 0 38 -14z" />
    <glyph glyph-name="Hbar" unicode="&#x126;" horiz-adv-x="1085" 
d="M1009 35q0 -40 -53 -40q-52 0 -52 40v237h-721v-237q0 -40 -55 -40q-53 0 -53 40v557q0 39 55 39q53 0 53 -39v-69h721v69q0 39 51 39q54 0 54 -39v-557zM904 349v99h-721v-99h721z" />
    <glyph glyph-name="hbar" unicode="&#x127;" horiz-adv-x="939" 
d="M172 516v-37h374q323 0 323 -151v-294q0 -39 -49 -39q-51 0 -51 39v292q0 82 -191 82h-406v-374q0 -39 -48 -39q-49 0 -49 39v482h-29q-46 0 -46 36q0 39 46 39h29q0 40 49 40q48 0 48 -40h291q47 0 47 -37q0 -38 -47 -38h-291z" />
    <glyph glyph-name="Itilde" unicode="&#x128;" horiz-adv-x="281" 
d="M195 35q0 -39 -55 -39q-54 0 -54 39v557q0 39 56 39q53 0 53 -39v-557zM-71 697q-41 0 -41 33q0 37 41 37h422q45 0 45 -35t-45 -35h-422z" />
    <glyph glyph-name="itilde" unicode="&#x129;" horiz-adv-x="248" 
d="M173 34q0 -39 -50 -39q-48 0 -48 39v407q0 36 46 36q52 0 52 -36v-407zM-87 555q-41 0 -41 33q0 37 41 37h422q45 0 45 -35t-45 -35h-422z" />
    <glyph glyph-name="Imacron" unicode="&#x12a;" horiz-adv-x="281" 
d="M195 35q0 -39 -55 -39q-54 0 -54 39v557q0 39 56 39q53 0 53 -39v-557zM-67 694q-45 0 -45 36q0 39 45 39h417q46 0 46 -37q0 -38 -46 -38h-417z" />
    <glyph glyph-name="imacron" unicode="&#x12b;" horiz-adv-x="248" 
d="M173 34q0 -39 -50 -39q-48 0 -48 39v407q0 36 46 36q52 0 52 -36v-407zM-83 552q-45 0 -45 36q0 39 45 39h417q46 0 46 -37q0 -38 -46 -38h-417z" />
    <glyph glyph-name="Ibreve" unicode="&#x12c;" horiz-adv-x="281" 
d="M195 35q0 -39 -55 -39q-54 0 -54 39v557q0 39 56 39q53 0 53 -39v-557zM-55 798q-7 7 -7 17q0 14 11 24t26 10q11 0 19 -11h1q81 -87 147 -87q36 0 69 21.5t74 65.5q14 11 24 11q13 0 24.5 -10t11.5 -24q0 -13 -6 -17q-57 -54 -102.5 -81.5t-94.5 -27.5q-46 0 -93 26
t-104 83z" />
    <glyph glyph-name="ibreve" unicode="&#x12d;" horiz-adv-x="248" 
d="M173 34q0 -39 -50 -39q-48 0 -48 39v407q0 36 46 36q52 0 52 -36v-407zM-70 656q-7 7 -7 17q0 14 11 24t26 10q11 0 19 -11h1q81 -87 147 -87q36 0 69 21.5t74 65.5q14 11 24 11q13 0 24.5 -10t11.5 -24q0 -13 -6 -17q-57 -54 -102.5 -81.5t-94.5 -27.5q-46 0 -93 26
t-104 83z" />
    <glyph glyph-name="Iogonek" unicode="&#x12e;" horiz-adv-x="281" 
d="M123 -3q-37 6 -37 38v557q0 39 56 39q53 0 53 -39v-557q0 -9 -2 -14t-5 -8.5t-7 -7t-8 -10.5l-33 -37q-8 -9 -10 -15t-1 -12q0 -19 30 -19h42q35 0 35 -33q0 -32 -35 -32h-55q-42 0 -63.5 10.5t-21.5 40.5q0 31 28 62z" />
    <glyph glyph-name="iogonek" unicode="&#x12f;" horiz-adv-x="259" 
d="M113 -1q-12 4 -22.5 12.5t-10.5 22.5v380q0 37 47 37q50 0 50 -37v-380q0 -11 -5 -21t-12 -18l-33 -37q-8 -8 -8.5 -15t-1.5 -12q0 -19 29 -19h43q35 0 35 -33q0 -32 -35 -32h-56q-40 0 -62 10.5t-22 40.5q0 15 6 30t22 32zM196 548q0 -46 -72 -46q-66 0 -66 46
q0 45 66 45q72 0 72 -45z" />
    <glyph glyph-name="Idotaccent" unicode="&#x130;" horiz-adv-x="281" 
d="M195 35q0 -39 -55 -39q-54 0 -54 39v557q0 39 56 39q53 0 53 -39v-557zM210 767q0 -47 -71 -47q-69 0 -69 47q0 45 69 45q71 0 71 -45z" />
    <glyph glyph-name="dotlessi" unicode="&#x131;" horiz-adv-x="248" 
d="M173 34q0 -39 -50 -39q-48 0 -48 39v407q0 36 46 36q52 0 52 -36v-407z" />
    <glyph glyph-name="IJ" unicode="&#x132;" horiz-adv-x="754" 
d="M195 35q0 -39 -55 -39q-54 0 -54 39v557q0 39 56 39q53 0 53 -39v-557zM684 179q0 -179 -294 -179h-68q-41 0 -41 38q0 37 41 37h68q187 0 187 98v419q0 39 55 39q52 0 52 -39v-413z" />
    <glyph glyph-name="ij" unicode="&#x133;" horiz-adv-x="567" 
d="M196 548q0 -46 -72 -46q-66 0 -66 46q0 45 66 45q72 0 72 -45zM177 34q0 -39 -50 -39q-47 0 -47 39v380q0 37 47 37q50 0 50 -37v-380zM509 551q0 -47 -68 -47q-69 0 -69 47q0 44 69 44q68 0 68 -44zM491 37q0 -141 -243 -141h-86q-39 0 -39 34q0 38 39 38h95
q135 0 135 60v386q0 37 49 37q50 0 50 -37v-377z" />
    <glyph glyph-name="Jcircumflex" unicode="&#x134;" horiz-adv-x="474" 
d="M403 179q0 -179 -294 -179h-68q-41 0 -41 38q0 37 41 37h68q187 0 187 98v419q0 39 55 39q52 0 52 -39v-413zM429 711q12 -14 12 -22q0 -13 -11.5 -23t-23.5 -10t-22 10l-146 121l-146 -122q-14 -9 -23 -9q-14 0 -24.5 10t-10.5 24q0 12 6 18l161 134q14 13 37 14
q21 0 38 -14z" />
    <glyph glyph-name="jcircumflex" unicode="&#x135;" horiz-adv-x="308" 
d="M232 37q0 -141 -243 -141h-86q-39 0 -39 34q0 38 39 38h95q135 0 135 60v386q0 37 49 37q50 0 50 -37v-377zM369 569q12 -14 12 -22q0 -13 -11.5 -23t-23.5 -10t-22 10l-146 121l-146 -122q-14 -9 -23 -9q-14 0 -24.5 10t-10.5 24q0 12 6 18l161 134q14 13 37 14
q21 0 38 -14z" />
    <glyph glyph-name="uni0136" unicode="&#x136;" horiz-adv-x="929" 
d="M287 319l584 -246q14 -6 20 -15t6 -19q0 -15 -14 -29t-33 -14q-10 0 -24 8l-633 273v-242q0 -40 -50 -40q-54 0 -54 40v557q0 39 55 39q49 0 49 -39v-235l605 267q11 8 28 8q21 0 35 -13t14 -30q0 -8 -5.5 -17t-16.5 -14zM425 -156q-5 -14 -17.5 -20.5t-26.5 -6.5
q-11 0 -19 6t-8 17v5l26 115q5 16 18.5 23.5t27.5 7.5q16 0 25.5 -6t9.5 -20q0 -2 -0.5 -4.5t-0.5 -3.5z" />
    <glyph glyph-name="uni0137" unicode="&#x137;" horiz-adv-x="766" 
d="M257 247l452 -181q12 -5 16.5 -12.5t4.5 -15.5q0 -16 -14 -29.5t-33 -13.5q-3 0 -8.5 1t-13.5 5l-489 200v-167q0 -39 -48 -39q-49 0 -49 39v558q0 39 49 39q48 0 48 -39v-300l493 188q15 5 20 5q19 0 32 -12t13 -28q0 -20 -23 -29zM353 -156q-5 -14 -17.5 -20.5
t-26.5 -6.5q-11 0 -19 6t-8 17v5l26 115q5 16 18.5 23.5t27.5 7.5q16 0 25.5 -6t9.5 -20q0 -2 -0.5 -4.5t-0.5 -3.5z" />
    <glyph glyph-name="Lacute" unicode="&#x139;" horiz-adv-x="939" 
d="M431 0q-361 0 -361 160v432q0 39 54 39t54 -39v-432q0 -85 246 -85h460q41 0 41 -40q0 -35 -41 -35h-453zM70 672h-1q-13 -10 -22 -10q-33 0 -33 30q0 6 2 11.5t8 8.5l167 142q11 11 27 11q30 0 30 -29q0 -12 -10 -25z" />
    <glyph glyph-name="lacute" unicode="&#x13a;" horiz-adv-x="247" 
d="M172 34q0 -39 -48 -39q-49 0 -49 39v558q0 39 49 39q48 0 48 -39v-558zM70 672h-1q-13 -10 -22 -10q-33 0 -33 30q0 6 2 11.5t8 8.5l167 142q11 11 27 11q30 0 30 -29q0 -12 -10 -25z" />
    <glyph glyph-name="uni013B" unicode="&#x13b;" horiz-adv-x="939" 
d="M431 0q-361 0 -361 160v432q0 39 54 39t54 -39v-432q0 -85 246 -85h460q41 0 41 -40q0 -35 -41 -35h-453zM487 -156q-5 -14 -17.5 -20.5t-26.5 -6.5q-11 0 -19 6t-8 17v5l26 115q5 16 18.5 23.5t27.5 7.5q16 0 25.5 -6t9.5 -20q0 -2 -0.5 -4.5t-0.5 -3.5z" />
    <glyph glyph-name="uni013C" unicode="&#x13c;" horiz-adv-x="247" 
d="M172 34q0 -39 -48 -39q-49 0 -49 39v558q0 39 49 39q48 0 48 -39v-558zM121 -156q-5 -14 -17.5 -20.5t-26.5 -6.5q-11 0 -19 6t-8 17v5l26 115q5 16 18.5 23.5t27.5 7.5q16 0 25.5 -6t9.5 -20q0 -2 -0.5 -4.5t-0.5 -3.5z" />
    <glyph glyph-name="Lcaron" unicode="&#x13d;" horiz-adv-x="939" 
d="M431 0q-361 0 -361 160v432q0 39 54 39t54 -39v-432q0 -85 246 -85h460q41 0 41 -40q0 -35 -41 -35h-453zM369 484q-5 -14 -17.5 -20.5t-26.5 -6.5q-11 0 -19 6t-8 17v5l26 115q5 16 18.5 23.5t27.5 7.5q16 0 25.5 -6t9.5 -20q0 -2 -0.5 -4.5t-0.5 -3.5z" />
    <glyph glyph-name="lcaron" unicode="&#x13e;" horiz-adv-x="315" 
d="M172 34q0 -39 -48 -39q-49 0 -49 39v558q0 39 49 39q48 0 48 -39v-558zM279 484q-5 -14 -17.5 -20.5t-26.5 -6.5q-11 0 -19 6t-8 17v5l26 115q5 16 18.5 23.5t27.5 7.5q16 0 25.5 -6t9.5 -20q0 -2 -0.5 -4.5t-0.5 -3.5z" />
    <glyph glyph-name="Ldot" unicode="&#x13f;" horiz-adv-x="939" 
d="M431 0q-361 0 -361 160v432q0 39 54 39t54 -39v-432q0 -85 246 -85h460q41 0 41 -40q0 -35 -41 -35h-453zM418 338q0 -47 -71 -47q-70 0 -70 47q0 46 70 46q71 0 71 -46z" />
    <glyph glyph-name="ldot" unicode="&#x140;" horiz-adv-x="348" 
d="M172 34q0 -39 -48 -39q-49 0 -49 39v558q0 39 49 39q48 0 48 -39v-558zM349 329q0 -47 -71 -47q-70 0 -70 47q0 46 70 46q71 0 71 -46z" />
    <glyph glyph-name="Lslash" unicode="&#x141;" horiz-adv-x="939" 
d="M70 592q0 39 54 39t54 -39v-190l328 87q5 1 8 1.5t5 0.5q13 0 21.5 -9.5t8.5 -28.5q0 -23 -26 -29l-345 -93v-171q0 -85 246 -85h460q41 0 41 -40q0 -35 -41 -35h-453q-361 0 -361 160v432z" />
    <glyph glyph-name="lslash" unicode="&#x142;" horiz-adv-x="308" 
d="M50 270q-11 -3 -19 -3q-13 0 -22 9t-9 27q0 24 31 33l76 20v236q0 39 49 39q47 0 47 -39v-210l63 17q5 1 8 1.5t5 0.5q13 0 21 -10t8 -29q0 -21 -25 -28l-80 -22v-278q0 -39 -47 -39q-49 0 -49 39v251z" />
    <glyph glyph-name="Nacute" unicode="&#x143;" horiz-adv-x="1078" 
d="M1003 57q0 -31 -19 -46.5t-46 -15.5q-17 0 -28.5 5t-24.5 14l-706 501v-480q0 -40 -51 -40q-53 0 -53 40v537q0 30 20.5 43.5t46.5 13.5q14 0 29.5 -4t26.5 -14l700 -492v473q0 39 53 39q52 0 52 -39v-535zM479 672h-1q-13 -10 -22 -10q-33 0 -33 30q0 6 2 11.5t8 8.5
l167 142q11 11 27 11q30 0 30 -29q0 -12 -10 -25z" />
    <glyph glyph-name="nacute" unicode="&#x144;" horiz-adv-x="926" 
d="M856 34q0 -39 -51 -39t-51 39v315q0 59 -155 59h-273q-159 0 -159 -59v-315q0 -39 -47 -39q-50 0 -50 39v315q0 130 285 130h214q287 0 287 -130v-315zM402 530h-1q-13 -10 -22 -10q-33 0 -33 30q0 6 2 11.5t8 8.5l167 142q11 11 27 11q30 0 30 -29q0 -12 -10 -25z" />
    <glyph glyph-name="uni0145" unicode="&#x145;" horiz-adv-x="1078" 
d="M1003 57q0 -31 -19 -46.5t-46 -15.5q-17 0 -28.5 5t-24.5 14l-706 501v-480q0 -40 -51 -40q-53 0 -53 40v537q0 30 20.5 43.5t46.5 13.5q14 0 29.5 -4t26.5 -14l700 -492v473q0 39 53 39q52 0 52 -39v-535zM513 -156q-5 -14 -17.5 -20.5t-26.5 -6.5q-11 0 -19 6t-8 17v5
l26 115q5 16 18.5 23.5t27.5 7.5q16 0 25.5 -6t9.5 -20q0 -2 -0.5 -4.5t-0.5 -3.5z" />
    <glyph glyph-name="uni0146" unicode="&#x146;" horiz-adv-x="926" 
d="M856 34q0 -39 -51 -39t-51 39v315q0 59 -155 59h-273q-159 0 -159 -59v-315q0 -39 -47 -39q-50 0 -50 39v315q0 130 285 130h214q287 0 287 -130v-315zM484 -156q-5 -14 -17.5 -20.5t-26.5 -6.5q-11 0 -19 6t-8 17v5l26 115q5 16 18.5 23.5t27.5 7.5q16 0 25.5 -6
t9.5 -20q0 -2 -0.5 -4.5t-0.5 -3.5z" />
    <glyph glyph-name="Ncaron" unicode="&#x147;" horiz-adv-x="1078" 
d="M1003 57q0 -31 -19 -46.5t-46 -15.5q-17 0 -28.5 5t-24.5 14l-706 501v-480q0 -40 -51 -40q-53 0 -53 40v537q0 30 20.5 43.5t46.5 13.5q14 0 29.5 -4t26.5 -14l700 -492v473q0 39 53 39q52 0 52 -39v-535zM348 792q-8 6 -11 12.5t-3 11.5q0 14 11 23.5t25 9.5
q7 0 21 -11l142 -117h7l143 118q10 10 21 10q14 0 26.5 -10t12.5 -24q0 -11 -8 -17l-160 -135q-18 -16 -35 -14q-14 0 -23 3.5t-17 10.5z" />
    <glyph glyph-name="ncaron" unicode="&#x148;" horiz-adv-x="926" 
d="M856 34q0 -39 -51 -39t-51 39v315q0 59 -155 59h-273q-159 0 -159 -59v-315q0 -39 -47 -39q-50 0 -50 39v315q0 130 285 130h214q287 0 287 -130v-315zM272 650q-8 6 -11 12.5t-3 11.5q0 14 11 23.5t25 9.5q7 0 21 -11l142 -117h7l143 118q10 10 21 10q14 0 26.5 -10
t12.5 -24q0 -11 -8 -17l-160 -135q-18 -16 -35 -14q-14 0 -23 3.5t-17 10.5z" />
    <glyph glyph-name="Eng" unicode="&#x14a;" horiz-adv-x="1078" 
d="M1003 -7q0 -141 -256 -141h-90q-42 0 -42 34q0 38 42 38h100q72 0 106.5 15t34.5 44v22l-719 510v-480q0 -40 -51 -40q-53 0 -53 40v537q0 30 20.5 43.5t46.5 13.5q14 0 29.5 -4t26.5 -14l700 -492v473q0 39 53 39q52 0 52 -39v-599z" />
    <glyph glyph-name="eng" unicode="&#x14b;" horiz-adv-x="926" 
d="M569 479q54 0 105.5 -6t92 -20.5t65 -39.5t24.5 -64v-356q0 -72 -62 -106.5t-183 -34.5h-87q-39 0 -39 34q0 38 39 38h96q134 0 134 59v366q0 59 -155 59h-273q-159 0 -159 -59v-315q0 -39 -47 -39q-50 0 -50 39v315q0 130 285 130h214z" />
    <glyph glyph-name="Omacron" unicode="&#x14c;" horiz-adv-x="1032" 
d="M863 458q0 94 -198 94h-283q-209 0 -209 -94v-293q0 -90 209 -90h277q204 0 204 90v293zM968 164q0 -164 -341 -164h-221q-342 0 -342 162v301q0 164 342 164h221q341 0 341 -164v-299zM307 694q-45 0 -45 36q0 39 45 39h417q46 0 46 -37q0 -38 -46 -38h-417z" />
    <glyph glyph-name="omacron" unicode="&#x14d;" horiz-adv-x="914" 
d="M748 339q0 69 -161 69h-251q-175 0 -175 -78v-185q0 -72 176 -72h252q159 0 159 72v194zM850 145q0 -145 -279 -145h-222q-285 0 -285 145v185q0 149 287 149h220q279 0 279 -148v-186zM249 552q-45 0 -45 36q0 39 45 39h417q46 0 46 -37q0 -38 -46 -38h-417z" />
    <glyph glyph-name="Obreve" unicode="&#x14e;" horiz-adv-x="1032" 
d="M863 458q0 94 -198 94h-283q-209 0 -209 -94v-293q0 -90 209 -90h277q204 0 204 90v293zM968 164q0 -164 -341 -164h-221q-342 0 -342 162v301q0 164 342 164h221q341 0 341 -164v-299zM320 798q-7 7 -7 17q0 14 11 24t26 10q11 0 19 -11h1q81 -87 147 -87q36 0 69 21.5
t74 65.5q14 11 24 11q13 0 24.5 -10t11.5 -24q0 -13 -6 -17q-57 -54 -102.5 -81.5t-94.5 -27.5q-46 0 -93 26t-104 83z" />
    <glyph glyph-name="obreve" unicode="&#x14f;" horiz-adv-x="914" 
d="M748 339q0 69 -161 69h-251q-175 0 -175 -78v-185q0 -72 176 -72h252q159 0 159 72v194zM850 145q0 -145 -279 -145h-222q-285 0 -285 145v185q0 149 287 149h220q279 0 279 -148v-186zM261 656q-7 7 -7 17q0 14 11 24t26 10q11 0 19 -11h1q81 -87 147 -87q36 0 69 21.5
t74 65.5q14 11 24 11q13 0 24.5 -10t11.5 -24q0 -13 -6 -17q-57 -54 -102.5 -81.5t-94.5 -27.5q-46 0 -93 26t-104 83z" />
    <glyph glyph-name="Ohungarumlaut" unicode="&#x150;" horiz-adv-x="1032" 
d="M863 458q0 94 -198 94h-283q-209 0 -209 -94v-293q0 -90 209 -90h277q204 0 204 90v293zM968 164q0 -164 -341 -164h-221q-342 0 -342 162v301q0 164 342 164h221q341 0 341 -164v-299zM359 673q-13 -11 -25 -11q-30 0 -30 30q0 6 2 11.5t7 8.5l166 142q14 11 27 11
q32 0 32 -29q0 -13 -11 -24zM550 672h-1q-10 -10 -24 -10q-32 0 -32 30q0 13 10 20l168 142q14 11 26 11q33 0 33 -29q0 -15 -10 -24z" />
    <glyph glyph-name="ohungarumlaut" unicode="&#x151;" horiz-adv-x="914" 
d="M748 339q0 69 -161 69h-251q-175 0 -175 -78v-185q0 -72 176 -72h252q159 0 159 72v194zM850 145q0 -145 -279 -145h-222q-285 0 -285 145v185q0 149 287 149h220q279 0 279 -148v-186zM300 531q-13 -11 -25 -11q-30 0 -30 30q0 6 2 11.5t7 8.5l166 142q14 11 27 11
q32 0 32 -29q0 -13 -11 -24zM491 530h-1q-10 -10 -24 -10q-32 0 -32 30q0 13 10 20l168 142q14 11 26 11q33 0 33 -29q0 -15 -10 -24z" />
    <glyph glyph-name="OE" unicode="&#x152;" horiz-adv-x="1769" 
d="M973 350h700q35 0 35 -39q0 -38 -35 -38h-700v-117q0 -80 196 -80h504q36 0 36 -37q0 -38 -36 -38h-507q-186 0 -256 55q-80 -56 -283 -56h-221q-342 0 -342 162v301q0 164 342 164h221q202 0 284 -58q73 58 266 58h138q36 0 36 -38q0 -36 -36 -36h-95q-247 0 -247 -80
v-123zM863 458q0 94 -198 94h-283q-209 0 -209 -94v-293q0 -90 209 -90h277q204 0 204 90v293z" />
    <glyph glyph-name="oe" unicode="&#x153;" horiz-adv-x="1603" 
d="M1548 236q0 -40 -43 -40h-654v-59q0 -64 175 -64h122q40 0 40 -36q0 -37 -40 -37h-93q-178 0 -251 52q-64 -52 -233 -52h-222q-285 0 -285 145v185q0 149 287 149h220q168 0 232 -52q70 52 248 52h248q249 0 249 -128v-115zM748 339q0 69 -161 69h-251q-175 0 -175 -78
v-185q0 -72 176 -72h252q159 0 159 72v194zM851 271h601v71q0 66 -131 66h-295q-175 0 -175 -69v-68z" />
    <glyph glyph-name="Racute" unicode="&#x154;" horiz-adv-x="1052" 
d="M894 471q0 81 -198 81h-512v-229h533q177 0 177 66v82zM1000 398q0 -150 -295 -150h-290l498 -173q14 -5 20.5 -15t6.5 -20q0 -17 -12 -31t-34 -14q-11 0 -20 6l-690 257v-223q0 -40 -53 -40q-56 0 -56 40v561q0 31 34 31h570q321 0 321 -161v-68zM465 672h-1
q-13 -10 -22 -10q-33 0 -33 30q0 6 2 11.5t8 8.5l167 142q11 11 27 11q30 0 30 -29q0 -12 -10 -25z" />
    <glyph glyph-name="racute" unicode="&#x155;" horiz-adv-x="454" 
d="M333 408q-165 0 -165 -74v-300q0 -39 -48 -39q-50 0 -50 39v300q0 145 273 145h51q37 0 37 -36q0 -35 -30 -35h-68zM166 530h-1q-13 -10 -22 -10q-33 0 -33 30q0 6 2 11.5t8 8.5l167 142q11 11 27 11q30 0 30 -29q0 -12 -10 -25z" />
    <glyph glyph-name="uni0156" unicode="&#x156;" horiz-adv-x="1052" 
d="M894 471q0 81 -198 81h-512v-229h533q177 0 177 66v82zM1000 398q0 -150 -295 -150h-290l498 -173q14 -5 20.5 -15t6.5 -20q0 -17 -12 -31t-34 -14q-11 0 -20 6l-690 257v-223q0 -40 -53 -40q-56 0 -56 40v561q0 31 34 31h570q321 0 321 -161v-68zM462 -156
q-5 -14 -17.5 -20.5t-26.5 -6.5q-11 0 -19 6t-8 17v5l26 115q5 16 18.5 23.5t27.5 7.5q16 0 25.5 -6t9.5 -20q0 -2 -0.5 -4.5t-0.5 -3.5z" />
    <glyph glyph-name="uni0157" unicode="&#x157;" horiz-adv-x="454" 
d="M333 408q-165 0 -165 -74v-300q0 -39 -48 -39q-50 0 -50 39v300q0 145 273 145h51q37 0 37 -36q0 -35 -30 -35h-68zM124 -156q-5 -14 -17.5 -20.5t-26.5 -6.5q-11 0 -19 6t-8 17v5l26 115q5 16 18.5 23.5t27.5 7.5q16 0 25.5 -6t9.5 -20q0 -2 -0.5 -4.5t-0.5 -3.5z" />
    <glyph glyph-name="Rcaron" unicode="&#x158;" horiz-adv-x="1052" 
d="M894 471q0 81 -198 81h-512v-229h533q177 0 177 66v82zM1000 398q0 -150 -295 -150h-290l498 -173q14 -5 20.5 -15t6.5 -20q0 -17 -12 -31t-34 -14q-11 0 -20 6l-690 257v-223q0 -40 -53 -40q-56 0 -56 40v561q0 31 34 31h570q321 0 321 -161v-68zM336 792q-8 6 -11 12.5
t-3 11.5q0 14 11 23.5t25 9.5q7 0 21 -11l142 -117h7l143 118q10 10 21 10q14 0 26.5 -10t12.5 -24q0 -11 -8 -17l-160 -135q-18 -16 -35 -14q-14 0 -23 3.5t-17 10.5z" />
    <glyph glyph-name="rcaron" unicode="&#x159;" horiz-adv-x="454" 
d="M333 408q-165 0 -165 -74v-300q0 -39 -48 -39q-50 0 -50 39v300q0 145 273 145h51q37 0 37 -36q0 -35 -30 -35h-68zM37 650q-8 6 -11 12.5t-3 11.5q0 14 11 23.5t25 9.5q7 0 21 -11l142 -117h7l143 118q10 10 21 10q14 0 26.5 -10t12.5 -24q0 -11 -8 -17l-160 -135
q-18 -16 -35 -14q-14 0 -23 3.5t-17 10.5z" />
    <glyph glyph-name="Sacute" unicode="&#x15a;" horiz-adv-x="972" 
d="M901 144q0 -144 -291 -144h-522q-38 0 -38 39q0 36 38 36h538q168 0 168 74v53q0 82 -201 82h-238q-302 0 -302 132v63q0 148 265 148h132q37 0 37 -39q0 -36 -37 -36h-150q-140 0 -140 -79v-48q0 -67 175 -67h245q321 0 321 -146v-68zM336 672h-1q-13 -10 -22 -10
q-33 0 -33 30q0 6 2 11.5t8 8.5l167 142q11 11 27 11q30 0 30 -29q0 -12 -10 -25z" />
    <glyph glyph-name="sacute" unicode="&#x15b;" horiz-adv-x="838" 
d="M784 127q0 -127 -224 -127h-464q-42 0 -42 35q0 38 42 38h482q106 0 106 54v29q0 53 -118 53h-256q-248 0 -248 121v32q0 117 237 117h127q44 0 44 -36q0 -35 -44 -35h-155q-112 0 -112 -46v-30q0 -52 133 -52h260q232 0 232 -124v-29zM276 530h-1q-13 -10 -22 -10
q-33 0 -33 30q0 6 2 11.5t8 8.5l167 142q11 11 27 11q30 0 30 -29q0 -12 -10 -25z" />
    <glyph glyph-name="Scircumflex" unicode="&#x15c;" horiz-adv-x="972" 
d="M901 144q0 -144 -291 -144h-522q-38 0 -38 39q0 36 38 36h538q168 0 168 74v53q0 82 -201 82h-238q-302 0 -302 132v63q0 148 265 148h132q37 0 37 -39q0 -36 -37 -36h-150q-140 0 -140 -79v-48q0 -67 175 -67h245q321 0 321 -146v-68zM588 711q12 -14 12 -22
q0 -13 -11.5 -23t-23.5 -10t-22 10l-146 121l-146 -122q-14 -9 -23 -9q-14 0 -24.5 10t-10.5 24q0 12 6 18l161 134q14 13 37 14q21 0 38 -14z" />
    <glyph glyph-name="scircumflex" unicode="&#x15d;" horiz-adv-x="838" 
d="M784 127q0 -127 -224 -127h-464q-42 0 -42 35q0 38 42 38h482q106 0 106 54v29q0 53 -118 53h-256q-248 0 -248 121v32q0 117 237 117h127q44 0 44 -36q0 -35 -44 -35h-155q-112 0 -112 -46v-30q0 -52 133 -52h260q232 0 232 -124v-29zM530 569q12 -14 12 -22
q0 -13 -11.5 -23t-23.5 -10t-22 10l-146 121l-146 -122q-14 -9 -23 -9q-14 0 -24.5 10t-10.5 24q0 12 6 18l161 134q14 13 37 14q21 0 38 -14z" />
    <glyph glyph-name="Scedilla" unicode="&#x15e;" horiz-adv-x="972" 
d="M901 144q0 -144 -291 -144h-62v-40q0 -113 -124 -113h-89q-36 0 -36 32q0 33 36 33h91q45 0 45 49v39h-383q-38 0 -38 39q0 36 38 36h538q168 0 168 74v53q0 82 -201 82h-238q-302 0 -302 132v63q0 148 265 148h132q37 0 37 -39q0 -36 -37 -36h-150q-140 0 -140 -79v-48
q0 -67 175 -67h245q321 0 321 -146v-68z" />
    <glyph glyph-name="scedilla" unicode="&#x15f;" horiz-adv-x="838" 
d="M784 127q0 -127 -224 -127h-41v-40q0 -113 -123 -113h-91q-35 0 -35 32q0 33 35 33h92q46 0 46 49v39h-347q-42 0 -42 35q0 38 42 38h482q106 0 106 54v29q0 53 -118 53h-256q-248 0 -248 121v32q0 117 237 117h127q44 0 44 -36q0 -35 -44 -35h-155q-112 0 -112 -46v-30
q0 -52 133 -52h260q232 0 232 -124v-29z" />
    <glyph glyph-name="Scaron" unicode="&#x160;" horiz-adv-x="972" 
d="M901 144q0 -144 -291 -144h-522q-38 0 -38 39q0 36 38 36h538q168 0 168 74v53q0 82 -201 82h-238q-302 0 -302 132v63q0 148 265 148h132q37 0 37 -39q0 -36 -37 -36h-150q-140 0 -140 -79v-48q0 -67 175 -67h245q321 0 321 -146v-68zM206 792q-8 6 -11 12.5t-3 11.5
q0 14 11 23.5t25 9.5q7 0 21 -11l142 -117h7l143 118q10 10 21 10q14 0 26.5 -10t12.5 -24q0 -11 -8 -17l-160 -135q-18 -16 -35 -14q-14 0 -23 3.5t-17 10.5z" />
    <glyph glyph-name="scaron" unicode="&#x161;" horiz-adv-x="838" 
d="M784 127q0 -127 -224 -127h-464q-42 0 -42 35q0 38 42 38h482q106 0 106 54v29q0 53 -118 53h-256q-248 0 -248 121v32q0 117 237 117h127q44 0 44 -36q0 -35 -44 -35h-155q-112 0 -112 -46v-30q0 -52 133 -52h260q232 0 232 -124v-29zM148 650q-8 6 -11 12.5t-3 11.5
q0 14 11 23.5t25 9.5q7 0 21 -11l142 -117h7l143 118q10 10 21 10q14 0 26.5 -10t12.5 -24q0 -11 -8 -17l-160 -135q-18 -16 -35 -14q-14 0 -23 3.5t-17 10.5z" />
    <glyph glyph-name="uni0162" unicode="&#x162;" horiz-adv-x="856" 
d="M479 552v-517q0 -40 -53 -40q-52 0 -52 40v517h-331q-37 0 -37 39q0 36 37 36h768q35 0 35 -36q0 -39 -35 -39h-332zM424 -156q-5 -14 -17.5 -20.5t-26.5 -6.5q-11 0 -19 6t-8 17v5l26 115q5 16 18.5 23.5t27.5 7.5q16 0 25.5 -6t9.5 -20q0 -2 -0.5 -4.5t-0.5 -3.5z" />
    <glyph glyph-name="uni0163" unicode="&#x163;" horiz-adv-x="503" 
d="M218 408v-374q0 -39 -49 -39q-48 0 -48 39v374h-59q-42 0 -42 36q0 35 42 35h59v113q0 39 50 39q47 0 47 -39v-113h226q40 0 40 -36q0 -35 -40 -35h-226zM170 -156q-5 -14 -17.5 -20.5t-26.5 -6.5q-11 0 -19 6t-8 17v5l26 115q5 16 18.5 23.5t27.5 7.5q16 0 25.5 -6
t9.5 -20q0 -2 -0.5 -4.5t-0.5 -3.5z" />
    <glyph glyph-name="Tcaron" unicode="&#x164;" horiz-adv-x="856" 
d="M479 552v-517q0 -40 -53 -40q-52 0 -52 40v517h-331q-37 0 -37 39q0 36 37 36h768q35 0 35 -36q0 -39 -35 -39h-332zM237 792q-8 6 -11 12.5t-3 11.5q0 14 11 23.5t25 9.5q7 0 21 -11l142 -117h7l143 118q10 10 21 10q14 0 26.5 -10t12.5 -24q0 -11 -8 -17l-160 -135
q-18 -16 -35 -14q-14 0 -23 3.5t-17 10.5z" />
    <glyph glyph-name="tcaron" unicode="&#x165;" horiz-adv-x="631" 
d="M218 408v-374q0 -39 -49 -39q-48 0 -48 39v374h-59q-42 0 -42 36q0 35 42 35h59v113q0 39 50 39q47 0 47 -39v-113h226q40 0 40 -36q0 -35 -40 -35h-226zM595 484q-5 -14 -17.5 -20.5t-26.5 -6.5q-11 0 -19 6t-8 17v5l26 115q5 16 18.5 23.5t27.5 7.5q16 0 25.5 -6
t9.5 -20q0 -2 -0.5 -4.5t-0.5 -3.5z" />
    <glyph glyph-name="Tbar" unicode="&#x166;" horiz-adv-x="856" 
d="M479 305v-270q0 -40 -53 -40q-52 0 -52 40v270h-155q-46 0 -46 35q0 39 46 39h155v173h-331q-37 0 -37 39q0 36 37 36h768q35 0 35 -36q0 -39 -35 -39h-332v-173h157q47 0 47 -37t-47 -37h-157z" />
    <glyph glyph-name="tbar" unicode="&#x167;" horiz-adv-x="503" 
d="M218 201v-167q0 -39 -49 -39q-48 0 -48 39v167h-49q-46 0 -46 36q0 39 46 39h49v132h-59q-42 0 -42 36q0 35 42 35h59v113q0 39 50 39q47 0 47 -39v-113h226q40 0 40 -36q0 -35 -40 -35h-226v-132h214q47 0 47 -37q0 -38 -47 -38h-214z" />
    <glyph glyph-name="Utilde" unicode="&#x168;" horiz-adv-x="1064" 
d="M994 172q0 -172 -384 -172h-177q-363 0 -363 172v420q0 39 53 39q54 0 54 -39v-413q0 -104 238 -104h213q259 0 259 104v413q0 39 54 39q53 0 53 -39v-420zM319 697q-41 0 -41 33q0 37 41 37h422q45 0 45 -35t-45 -35h-422z" />
    <glyph glyph-name="utilde" unicode="&#x169;" 
d="M865 139q0 -139 -302 -139h-189q-304 0 -304 139v310q0 38 49 38q48 0 48 -38v-310q0 -66 188 -66h226q184 0 184 64v312q0 37 51 37q49 0 49 -37v-310zM254 555q-41 0 -41 33q0 37 41 37h422q45 0 45 -35t-45 -35h-422z" />
    <glyph glyph-name="Umacron" unicode="&#x16a;" horiz-adv-x="1064" 
d="M994 172q0 -172 -384 -172h-177q-363 0 -363 172v420q0 39 53 39q54 0 54 -39v-413q0 -104 238 -104h213q259 0 259 104v413q0 39 54 39q53 0 53 -39v-420zM323 694q-45 0 -45 36q0 39 45 39h417q46 0 46 -37q0 -38 -46 -38h-417z" />
    <glyph glyph-name="umacron" unicode="&#x16b;" 
d="M865 139q0 -139 -302 -139h-189q-304 0 -304 139v310q0 38 49 38q48 0 48 -38v-310q0 -66 188 -66h226q184 0 184 64v312q0 37 51 37q49 0 49 -37v-310zM258 552q-45 0 -45 36q0 39 45 39h417q46 0 46 -37q0 -38 -46 -38h-417z" />
    <glyph glyph-name="Ubreve" unicode="&#x16c;" horiz-adv-x="1064" 
d="M994 172q0 -172 -384 -172h-177q-363 0 -363 172v420q0 39 53 39q54 0 54 -39v-413q0 -104 238 -104h213q259 0 259 104v413q0 39 54 39q53 0 53 -39v-420zM335 798q-7 7 -7 17q0 14 11 24t26 10q11 0 19 -11h1q81 -87 147 -87q36 0 69 21.5t74 65.5q14 11 24 11
q13 0 24.5 -10t11.5 -24q0 -13 -6 -17q-57 -54 -102.5 -81.5t-94.5 -27.5q-46 0 -93 26t-104 83z" />
    <glyph glyph-name="ubreve" unicode="&#x16d;" 
d="M865 139q0 -139 -302 -139h-189q-304 0 -304 139v310q0 38 49 38q48 0 48 -38v-310q0 -66 188 -66h226q184 0 184 64v312q0 37 51 37q49 0 49 -37v-310zM271 656q-7 7 -7 17q0 14 11 24t26 10q11 0 19 -11h1q81 -87 147 -87q36 0 69 21.5t74 65.5q14 11 24 11
q13 0 24.5 -10t11.5 -24q0 -13 -6 -17q-57 -54 -102.5 -81.5t-94.5 -27.5q-46 0 -93 26t-104 83z" />
    <glyph glyph-name="Uring" unicode="&#x16e;" horiz-adv-x="1064" 
d="M994 172q0 -172 -384 -172h-177q-363 0 -363 172v420q0 39 53 39q54 0 54 -39v-413q0 -104 238 -104h213q259 0 259 104v413q0 39 54 39q53 0 53 -39v-420zM587 781q0 24 -15.5 38.5t-40.5 14.5q-23 0 -39.5 -14.5t-16.5 -38.5q0 -19 16.5 -34.5t39.5 -15.5
q25 0 40.5 15.5t15.5 34.5zM642 781q0 -21 -9 -40t-24.5 -33t-35.5 -22.5t-42 -8.5q-24 0 -44 8.5t-34 23t-22 33.5t-8 39q0 23 8.5 42.5t23.5 34t34.5 22.5t41.5 8t42.5 -8t35.5 -22.5t24 -34t9 -42.5z" />
    <glyph glyph-name="uring" unicode="&#x16f;" 
d="M865 139q0 -139 -302 -139h-189q-304 0 -304 139v310q0 38 49 38q48 0 48 -38v-310q0 -66 188 -66h226q184 0 184 64v312q0 37 51 37q49 0 49 -37v-310zM521 639q0 24 -15.5 38.5t-40.5 14.5q-23 0 -39.5 -14.5t-16.5 -38.5q0 -19 16.5 -34.5t39.5 -15.5q25 0 40.5 15.5
t15.5 34.5zM576 639q0 -21 -9 -40t-24.5 -33t-35.5 -22.5t-42 -8.5q-24 0 -44 8.5t-34 23t-22 33.5t-8 39q0 23 8.5 42.5t23.5 34t34.5 22.5t41.5 8t42.5 -8t35.5 -22.5t24 -34t9 -42.5z" />
    <glyph glyph-name="Uhungarumlaut" unicode="&#x170;" horiz-adv-x="1064" 
d="M994 172q0 -172 -384 -172h-177q-363 0 -363 172v420q0 39 53 39q54 0 54 -39v-413q0 -104 238 -104h213q259 0 259 104v413q0 39 54 39q53 0 53 -39v-420zM375 673q-13 -11 -25 -11q-30 0 -30 30q0 6 2 11.5t7 8.5l166 142q14 11 27 11q32 0 32 -29q0 -13 -11 -24z
M566 672h-1q-10 -10 -24 -10q-32 0 -32 30q0 13 10 20l168 142q14 11 26 11q33 0 33 -29q0 -15 -10 -24z" />
    <glyph glyph-name="uhungarumlaut" unicode="&#x171;" 
d="M865 139q0 -139 -302 -139h-189q-304 0 -304 139v310q0 38 49 38q48 0 48 -38v-310q0 -66 188 -66h226q184 0 184 64v312q0 37 51 37q49 0 49 -37v-310zM309 531q-13 -11 -25 -11q-30 0 -30 30q0 6 2 11.5t7 8.5l166 142q14 11 27 11q32 0 32 -29q0 -13 -11 -24zM500 530
h-1q-10 -10 -24 -10q-32 0 -32 30q0 13 10 20l168 142q14 11 26 11q33 0 33 -29q0 -15 -10 -24z" />
    <glyph glyph-name="Uogonek" unicode="&#x172;" horiz-adv-x="1064" 
d="M733 6q-56 -6 -123 -6h-177q-363 0 -363 172v420q0 39 53 39q54 0 54 -39v-413q0 -104 238 -104h213q259 0 259 104v413q0 39 54 39q53 0 53 -39v-420q0 -125 -202 -159l-48 -55q-7 -8 -9 -14.5t-2 -12.5q0 -19 31 -19h41q36 0 36 -33q0 -32 -36 -32h-54q-42 0 -64 10.5
t-22 40.5q0 15 6.5 30t23.5 32z" />
    <glyph glyph-name="uogonek" unicode="&#x173;" 
d="M685 7q-26 -4 -56.5 -5.5t-65.5 -1.5h-189q-304 0 -304 139v310q0 38 49 38q48 0 48 -38v-310q0 -66 188 -66h226q184 0 184 64v312q0 37 51 37q49 0 49 -37v-310q0 -85 -116 -120l-54 -61q-8 -8 -9.5 -15t-1.5 -12q0 -19 30 -19h42q36 0 36 -33q0 -32 -36 -32h-55
q-40 0 -62.5 10.5t-22.5 40.5q0 16 6.5 30t22.5 32z" />
    <glyph glyph-name="Wcircumflex" unicode="&#x174;" horiz-adv-x="1468" 
d="M737 523l-268 -489q-11 -17 -29 -26.5t-38 -9.5q-21 0 -40.5 9.5t-32.5 29.5l-304 535q-4 12 -4 17q0 19 18.5 30.5t40.5 11.5q27 0 41 -26l282 -512l262 495q11 21 31 30.5t41 9.5q20 0 38 -9t26 -27l269 -499l274 512q9 14 20.5 20t25.5 6q20 0 38 -12t18 -31
q0 -10 -3 -17l-306 -533q-12 -20 -31.5 -30t-39.5 -10t-39.5 9.5t-29.5 28.5zM926 711q12 -14 12 -22q0 -13 -11.5 -23t-23.5 -10t-22 10l-146 121l-146 -122q-14 -9 -23 -9q-14 0 -24.5 10t-10.5 24q0 12 6 18l161 134q14 13 37 14q21 0 38 -14z" />
    <glyph glyph-name="wcircumflex" unicode="&#x175;" horiz-adv-x="1203" 
d="M940 26q-9 -15 -28 -23t-41 -8q-20 0 -37 7.5t-23 21.5l-209 359l-213 -359q-9 -15 -27.5 -22.5t-38.5 -7.5q-48 0 -65 31l-232 399q-5 12 -5 19q0 18 15.5 30.5t35.5 12.5q11 0 20.5 -5t18.5 -18l217 -373l212 358q10 17 27 24.5t35 7.5t34 -7.5t25 -23.5l214 -360
l216 374q10 17 34 17q18 0 37.5 -11t19.5 -28q0 -8 -3 -14zM793 569q12 -14 12 -22q0 -13 -11.5 -23t-23.5 -10t-22 10l-146 121l-146 -122q-14 -9 -23 -9q-14 0 -24.5 10t-10.5 24q0 12 6 18l161 134q14 13 37 14q21 0 38 -14z" />
    <glyph glyph-name="Ycircumflex" unicode="&#x176;" horiz-adv-x="930" 
d="M464 337l353 280q20 11 37 11q20 0 37 -11.5t17 -27.5t-13 -26l-375 -298h-3v-231q-3 -39 -52 -39q-54 0 -54 40v230h-2l-375 298q-13 10 -13 25q0 17 17 29t38 12q8 0 17 -2t18 -10zM657 711q12 -14 12 -22q0 -13 -11.5 -23t-23.5 -10t-22 10l-146 121l-146 -122
q-14 -9 -23 -9q-14 0 -24.5 10t-10.5 24q0 12 6 18l161 134q14 13 37 14q21 0 38 -14z" />
    <glyph glyph-name="ycircumflex" unicode="&#x177;" 
d="M859 -5q0 -131 -244 -131h-137q-38 0 -38 36q0 35 38 35h146q139 0 139 60v5h-410q-283 0 -283 139v310q0 37 50 37q47 0 47 -37v-310q0 -66 164 -66h432v376q0 37 47 37q49 0 49 -37v-454zM659 569q12 -14 12 -22q0 -13 -11.5 -23t-23.5 -10t-22 10l-146 121l-146 -122
q-14 -9 -23 -9q-14 0 -24.5 10t-10.5 24q0 12 6 18l161 134q14 13 37 14q21 0 38 -14z" />
    <glyph glyph-name="Ydieresis" unicode="&#x178;" horiz-adv-x="930" 
d="M464 337l353 280q20 11 37 11q20 0 37 -11.5t17 -27.5t-13 -26l-375 -298h-3v-231q-3 -39 -52 -39q-54 0 -54 40v230h-2l-375 298q-13 10 -13 25q0 17 17 29t38 12q8 0 17 -2t18 -10zM414 734q0 -42 -62 -42q-59 0 -59 42q0 41 59 41q62 0 62 -41zM637 734q0 -42 -62 -42
q-61 0 -61 42q0 41 61 41q62 0 62 -41z" />
    <glyph glyph-name="Zacute" unicode="&#x179;" horiz-adv-x="918" 
d="M721 552h-640q-38 0 -38 39q0 36 38 36h748q21 0 36 -14.5t15 -31.5q0 -19 -15 -29l-689 -477h667q37 0 37 -37q0 -38 -37 -38h-747q-32 0 -49 16t-17 36q0 21 19 34zM399 672h-1q-13 -10 -22 -10q-33 0 -33 30q0 6 2 11.5t8 8.5l167 142q11 11 27 11q30 0 30 -29
q0 -12 -10 -25z" />
    <glyph glyph-name="zacute" unicode="&#x17a;" horiz-adv-x="893" 
d="M659 408h-557q-39 0 -39 35q0 36 39 36h656q30 0 46.5 -13.5t16.5 -31.5q0 -25 -28 -40l-594 -321h612q38 0 38 -36q0 -37 -38 -37h-711q-30 0 -47 12.5t-17 31.5q0 25 30 42zM386 530h-1q-13 -10 -22 -10q-33 0 -33 30q0 6 2 11.5t8 8.5l167 142q11 11 27 11
q30 0 30 -29q0 -12 -10 -25z" />
    <glyph glyph-name="Zdotaccent" unicode="&#x17b;" horiz-adv-x="918" 
d="M721 552h-640q-38 0 -38 39q0 36 38 36h748q21 0 36 -14.5t15 -31.5q0 -19 -15 -29l-689 -477h667q37 0 37 -37q0 -38 -37 -38h-747q-32 0 -49 16t-17 36q0 21 19 34zM530 767q0 -47 -71 -47q-69 0 -69 47q0 45 69 45q71 0 71 -45z" />
    <glyph glyph-name="zdotaccent" unicode="&#x17c;" horiz-adv-x="893" 
d="M659 408h-557q-39 0 -39 35q0 36 39 36h656q30 0 46.5 -13.5t16.5 -31.5q0 -25 -28 -40l-594 -321h612q38 0 38 -36q0 -37 -38 -37h-711q-30 0 -47 12.5t-17 31.5q0 25 30 42zM517 625q0 -47 -71 -47q-69 0 -69 47q0 45 69 45q71 0 71 -45z" />
    <glyph glyph-name="Zcaron" unicode="&#x17d;" horiz-adv-x="918" 
d="M721 552h-640q-38 0 -38 39q0 36 38 36h748q21 0 36 -14.5t15 -31.5q0 -19 -15 -29l-689 -477h667q37 0 37 -37q0 -38 -37 -38h-747q-32 0 -49 16t-17 36q0 21 19 34zM268 792q-8 6 -11 12.5t-3 11.5q0 14 11 23.5t25 9.5q7 0 21 -11l142 -117h7l143 118q10 10 21 10
q14 0 26.5 -10t12.5 -24q0 -11 -8 -17l-160 -135q-18 -16 -35 -14q-14 0 -23 3.5t-17 10.5z" />
    <glyph glyph-name="zcaron" unicode="&#x17e;" horiz-adv-x="893" 
d="M659 408h-557q-39 0 -39 35q0 36 39 36h656q30 0 46.5 -13.5t16.5 -31.5q0 -25 -28 -40l-594 -321h612q38 0 38 -36q0 -37 -38 -37h-711q-30 0 -47 12.5t-17 31.5q0 25 30 42zM256 650q-8 6 -11 12.5t-3 11.5q0 14 11 23.5t25 9.5q7 0 21 -11l142 -117h7l143 118
q10 10 21 10q14 0 26.5 -10t12.5 -24q0 -11 -8 -17l-160 -135q-18 -16 -35 -14q-14 0 -23 3.5t-17 10.5z" />
    <glyph glyph-name="uni0218" unicode="&#x218;" horiz-adv-x="972" 
d="M901 144q0 -144 -291 -144h-522q-38 0 -38 39q0 36 38 36h538q168 0 168 74v53q0 82 -201 82h-238q-302 0 -302 132v63q0 148 265 148h132q37 0 37 -39q0 -36 -37 -36h-150q-140 0 -140 -79v-48q0 -67 175 -67h245q321 0 321 -146v-68zM503 -156q-5 -14 -17.5 -20.5
t-26.5 -6.5q-11 0 -19 6t-8 17v5l26 115q5 16 18.5 23.5t27.5 7.5q16 0 25.5 -6t9.5 -20q0 -2 -0.5 -4.5t-0.5 -3.5z" />
    <glyph glyph-name="uni0219" unicode="&#x219;" horiz-adv-x="838" 
d="M784 127q0 -127 -224 -127h-464q-42 0 -42 35q0 38 42 38h482q106 0 106 54v29q0 53 -118 53h-256q-248 0 -248 121v32q0 117 237 117h127q44 0 44 -36q0 -35 -44 -35h-155q-112 0 -112 -46v-30q0 -52 133 -52h260q232 0 232 -124v-29zM445 -156q-5 -14 -17.5 -20.5
t-26.5 -6.5q-11 0 -19 6t-8 17v5l26 115q5 16 18.5 23.5t27.5 7.5q16 0 25.5 -6t9.5 -20q0 -2 -0.5 -4.5t-0.5 -3.5z" />
    <glyph glyph-name="uni021A" unicode="&#x21a;" horiz-adv-x="856" 
d="M479 552v-517q0 -40 -53 -40q-52 0 -52 40v517h-331q-37 0 -37 39q0 36 37 36h768q35 0 35 -36q0 -39 -35 -39h-332zM423 -156q-5 -14 -17.5 -20.5t-26.5 -6.5q-11 0 -19 6t-8 17v5l26 115q5 16 18.5 23.5t27.5 7.5q16 0 25.5 -6t9.5 -20q0 -2 -0.5 -4.5t-0.5 -3.5z" />
    <glyph glyph-name="uni021B" unicode="&#x21b;" horiz-adv-x="503" 
d="M218 408v-374q0 -39 -49 -39q-48 0 -48 39v374h-59q-42 0 -42 36q0 35 42 35h59v113q0 39 50 39q47 0 47 -39v-113h226q40 0 40 -36q0 -35 -40 -35h-226zM170 -156q-5 -14 -17.5 -20.5t-26.5 -6.5q-11 0 -19 6t-8 17v5l26 115q5 16 18.5 23.5t27.5 7.5q16 0 25.5 -6
t9.5 -20q0 -2 -0.5 -4.5t-0.5 -3.5z" />
    <glyph glyph-name="circumflex" unicode="&#x2c6;" horiz-adv-x="441" 
d="M412 569q12 -14 12 -22q0 -13 -11.5 -23t-23.5 -10t-22 10l-146 121l-146 -122q-14 -9 -23 -9q-14 0 -24.5 10t-10.5 24q0 12 6 18l161 134q14 13 37 14q21 0 38 -14z" />
    <glyph glyph-name="caron" unicode="&#x2c7;" horiz-adv-x="443" 
d="M31 650q-8 6 -11 12.5t-3 11.5q0 14 11 23.5t25 9.5q7 0 21 -11l142 -117h7l143 118q10 10 21 10q14 0 26.5 -10t12.5 -24q0 -11 -8 -17l-160 -135q-18 -16 -35 -14q-14 0 -23 3.5t-17 10.5z" />
    <glyph glyph-name="breve" unicode="&#x2d8;" horiz-adv-x="431" 
d="M19 656q-7 7 -7 17q0 14 11 24t26 10q11 0 19 -11h1q81 -87 147 -87q36 0 69 21.5t74 65.5q14 11 24 11q13 0 24.5 -10t11.5 -24q0 -13 -6 -17q-57 -54 -102.5 -81.5t-94.5 -27.5q-46 0 -93 26t-104 83z" />
    <glyph glyph-name="dotaccent" unicode="&#x2d9;" horiz-adv-x="173" 
d="M157 625q0 -47 -71 -47q-69 0 -69 47q0 45 69 45q71 0 71 -45z" />
    <glyph glyph-name="ring" unicode="&#x2da;" horiz-adv-x="252" 
d="M181 639q0 24 -15.5 38.5t-40.5 14.5q-23 0 -39.5 -14.5t-16.5 -38.5q0 -19 16.5 -34.5t39.5 -15.5q25 0 40.5 15.5t15.5 34.5zM236 639q0 -21 -9 -40t-24.5 -33t-35.5 -22.5t-42 -8.5q-24 0 -44 8.5t-34 23t-22 33.5t-8 39q0 23 8.5 42.5t23.5 34t34.5 22.5t41.5 8
t42.5 -8t35.5 -22.5t24 -34t9 -42.5z" />
    <glyph glyph-name="ogonek" unicode="&#x2db;" horiz-adv-x="208" 
d="M85 5q9 10 26 10q20 0 20 -12q0 -4 -3 -8l-33 -37q-8 -8 -8.5 -15t-1.5 -12q0 -19 29 -19h42q36 0 36 -33q0 -32 -36 -32h-55q-40 0 -62 10.5t-22 40.5q0 16 6 30t22 32z" />
    <glyph glyph-name="tilde" unicode="&#x2dc;" horiz-adv-x="542" 
d="M58 555q-41 0 -41 33q0 37 41 37h422q45 0 45 -35t-45 -35h-422z" />
    <glyph glyph-name="hungarumlaut" unicode="&#x2dd;" horiz-adv-x="458" 
d="M72 531q-13 -11 -25 -11q-30 0 -30 30q0 6 2 11.5t7 8.5l166 142q14 11 27 11q32 0 32 -29q0 -13 -11 -24zM263 530h-1q-10 -10 -24 -10q-32 0 -32 30q0 13 10 20l168 142q14 11 26 11q33 0 33 -29q0 -15 -10 -24z" />
    <glyph glyph-name="uni0326" unicode="&#x326;" horiz-adv-x="314" 
d="M175 -156q-5 -14 -17.5 -20.5t-26.5 -6.5q-11 0 -19 6t-8 17v5l26 115q5 16 18.5 23.5t27.5 7.5q16 0 25.5 -6t9.5 -20q0 -2 -0.5 -4.5t-0.5 -3.5z" />
    <glyph glyph-name="Wgrave" unicode="&#x1e80;" horiz-adv-x="1468" 
d="M737 523l-268 -489q-11 -17 -29 -26.5t-38 -9.5q-21 0 -40.5 9.5t-32.5 29.5l-304 535q-4 12 -4 17q0 19 18.5 30.5t40.5 11.5q27 0 41 -26l282 -512l262 495q11 21 31 30.5t41 9.5q20 0 38 -9t26 -27l269 -499l274 512q9 14 20.5 20t25.5 6q20 0 38 -12t18 -31
q0 -10 -3 -17l-306 -533q-12 -20 -31.5 -30t-39.5 -10t-39.5 9.5t-29.5 28.5zM843 711q8 -6 8 -17t-11 -20.5t-25 -9.5q-15 0 -22 9l-169 140q-6 4 -6 21q0 12 8 21.5t22 9.5q3 -2 9.5 -3t14.5 -8z" />
    <glyph glyph-name="wgrave" unicode="&#x1e81;" horiz-adv-x="1203" 
d="M940 26q-9 -15 -28 -23t-41 -8q-20 0 -37 7.5t-23 21.5l-209 359l-213 -359q-9 -15 -27.5 -22.5t-38.5 -7.5q-48 0 -65 31l-232 399q-5 12 -5 19q0 18 15.5 30.5t35.5 12.5q11 0 20.5 -5t18.5 -18l217 -373l212 358q10 17 27 24.5t35 7.5t34 -7.5t25 -23.5l214 -360
l216 374q10 17 34 17q18 0 37.5 -11t19.5 -28q0 -8 -3 -14zM710 569q8 -6 8 -17t-11 -20.5t-25 -9.5q-15 0 -22 9l-169 140q-6 4 -6 21q0 12 8 21.5t22 9.5q3 -2 9.5 -3t14.5 -8z" />
    <glyph glyph-name="Wacute" unicode="&#x1e82;" horiz-adv-x="1468" 
d="M737 523l-268 -489q-11 -17 -29 -26.5t-38 -9.5q-21 0 -40.5 9.5t-32.5 29.5l-304 535q-4 12 -4 17q0 19 18.5 30.5t40.5 11.5q27 0 41 -26l282 -512l262 495q11 21 31 30.5t41 9.5q20 0 38 -9t26 -27l269 -499l274 512q9 14 20.5 20t25.5 6q20 0 38 -12t18 -31
q0 -10 -3 -17l-306 -533q-12 -20 -31.5 -30t-39.5 -10t-39.5 9.5t-29.5 28.5zM673 672h-1q-13 -10 -22 -10q-33 0 -33 30q0 6 2 11.5t8 8.5l167 142q11 11 27 11q30 0 30 -29q0 -12 -10 -25z" />
    <glyph glyph-name="wacute" unicode="&#x1e83;" horiz-adv-x="1203" 
d="M940 26q-9 -15 -28 -23t-41 -8q-20 0 -37 7.5t-23 21.5l-209 359l-213 -359q-9 -15 -27.5 -22.5t-38.5 -7.5q-48 0 -65 31l-232 399q-5 12 -5 19q0 18 15.5 30.5t35.5 12.5q11 0 20.5 -5t18.5 -18l217 -373l212 358q10 17 27 24.5t35 7.5t34 -7.5t25 -23.5l214 -360
l216 374q10 17 34 17q18 0 37.5 -11t19.5 -28q0 -8 -3 -14zM541 530h-1q-13 -10 -22 -10q-33 0 -33 30q0 6 2 11.5t8 8.5l167 142q11 11 27 11q30 0 30 -29q0 -12 -10 -25z" />
    <glyph glyph-name="Wdieresis" unicode="&#x1e84;" horiz-adv-x="1468" 
d="M737 523l-268 -489q-11 -17 -29 -26.5t-38 -9.5q-21 0 -40.5 9.5t-32.5 29.5l-304 535q-4 12 -4 17q0 19 18.5 30.5t40.5 11.5q27 0 41 -26l282 -512l262 495q11 21 31 30.5t41 9.5q20 0 38 -9t26 -27l269 -499l274 512q9 14 20.5 20t25.5 6q20 0 38 -12t18 -31
q0 -10 -3 -17l-306 -533q-12 -20 -31.5 -30t-39.5 -10t-39.5 9.5t-29.5 28.5zM683 734q0 -42 -62 -42q-59 0 -59 42q0 41 59 41q62 0 62 -41zM906 734q0 -42 -62 -42q-61 0 -61 42q0 41 61 41q62 0 62 -41z" />
    <glyph glyph-name="wdieresis" unicode="&#x1e85;" horiz-adv-x="1203" 
d="M940 26q-9 -15 -28 -23t-41 -8q-20 0 -37 7.5t-23 21.5l-209 359l-213 -359q-9 -15 -27.5 -22.5t-38.5 -7.5q-48 0 -65 31l-232 399q-5 12 -5 19q0 18 15.5 30.5t35.5 12.5q11 0 20.5 -5t18.5 -18l217 -373l212 358q10 17 27 24.5t35 7.5t34 -7.5t25 -23.5l214 -360
l216 374q10 17 34 17q18 0 37.5 -11t19.5 -28q0 -8 -3 -14zM551 592q0 -42 -62 -42q-59 0 -59 42q0 41 59 41q62 0 62 -41zM774 592q0 -42 -62 -42q-61 0 -61 42q0 41 61 41q62 0 62 -41z" />
    <glyph glyph-name="Ygrave" unicode="&#x1ef2;" horiz-adv-x="930" 
d="M464 337l353 280q20 11 37 11q20 0 37 -11.5t17 -27.5t-13 -26l-375 -298h-3v-231q-3 -39 -52 -39q-54 0 -54 40v230h-2l-375 298q-13 10 -13 25q0 17 17 29t38 12q8 0 17 -2t18 -10zM574 711q8 -6 8 -17t-11 -20.5t-25 -9.5q-15 0 -22 9l-169 140q-6 4 -6 21
q0 12 8 21.5t22 9.5q3 -2 9.5 -3t14.5 -8z" />
    <glyph glyph-name="ygrave" unicode="&#x1ef3;" 
d="M859 -5q0 -131 -244 -131h-137q-38 0 -38 36q0 35 38 35h146q139 0 139 60v5h-410q-283 0 -283 139v310q0 37 50 37q47 0 47 -37v-310q0 -66 164 -66h432v376q0 37 47 37q49 0 49 -37v-454zM576 569q8 -6 8 -17t-11 -20.5t-25 -9.5q-15 0 -22 9l-169 140q-6 4 -6 21
q0 12 8 21.5t22 9.5q3 -2 9.5 -3t14.5 -8z" />
    <glyph glyph-name="endash" unicode="&#x2013;" horiz-adv-x="632" 
d="M54 227q-39 0 -39 33q0 35 39 35h530q34 0 34 -33q0 -35 -34 -35h-530z" />
    <glyph glyph-name="emdash" unicode="&#x2014;" horiz-adv-x="814" 
d="M53 227q-38 0 -38 33q0 35 38 35h712q34 0 34 -33q0 -35 -34 -35h-712z" />
    <glyph glyph-name="quoteleft" unicode="&#x2018;" horiz-adv-x="239" 
d="M51 588q-3 6 -3 12q0 17 14 26t31 9q21 0 40 -10.5t22 -30.5l35 -149l2 -10q0 -17 -12 -25t-28 -8q-18 0 -33 8.5t-21 28.5z" />
    <glyph glyph-name="quoteright" unicode="&#x2019;" horiz-adv-x="238" 
d="M142 439q-8 -20 -23 -28.5t-31 -8.5q-17 0 -28.5 8t-11.5 25l2 10l35 149q3 20 22 30.5t40 10.5q16 0 30 -8.5t14 -25.5q0 -4 -0.5 -7t-0.5 -6z" />
    <glyph glyph-name="quotesinglbase" unicode="&#x201a;" horiz-adv-x="237" 
d="M142 -57q-5 -17 -22 -26t-36 -9q-16 0 -26.5 7.5t-10.5 21.5v8l35 153q7 20 25 30.5t36 10.5q22 0 34.5 -9t12.5 -25q0 -3 -0.5 -6.5t-0.5 -5.5z" />
    <glyph glyph-name="quotedblleft" unicode="&#x201c;" horiz-adv-x="398" 
d="M52 588q-4 4 -4 12q0 17 14 26t33 9q22 0 39 -9.5t22 -31.5l36 -149l2 -10q0 -17 -13 -25t-28 -8q-17 0 -33 8.5t-22 28.5zM209 588q-1 3 -1.5 5.5t-0.5 6.5q0 17 13.5 26t32.5 9q20 0 38.5 -9.5t23.5 -31.5l35 -149q0 -3 0.5 -5.5t0.5 -4.5q0 -17 -12.5 -25t-28.5 -8
q-17 0 -31.5 8.5t-21.5 28.5z" />
    <glyph glyph-name="quotedblright" unicode="&#x201d;" horiz-adv-x="397" 
d="M143 439q-8 -20 -23 -28.5t-31 -8.5q-17 0 -29 8t-12 25l2 10l35 149q3 20 21.5 30.5t39.5 10.5q18 0 31.5 -8.5t13.5 -25.5q0 -4 -0.5 -7t-0.5 -6zM300 439q-6 -20 -22.5 -28.5t-32.5 -8.5t-28.5 8t-12.5 25v4q0 6 1 6l35 149q5 20 23 30.5t40 10.5q19 0 32.5 -9
t13.5 -26q0 -6 -3 -12z" />
    <glyph glyph-name="quotedblbase" unicode="&#x201e;" horiz-adv-x="448" 
d="M354 -57q-5 -17 -22 -26t-36 -9q-16 0 -26.5 7.5t-10.5 21.5v8l35 153q7 20 25 30.5t36 10.5q22 0 34.5 -9t12.5 -25q0 -3 -0.5 -6.5t-0.5 -5.5zM142 -57q-5 -17 -22 -26t-36 -9q-16 0 -26.5 7.5t-10.5 21.5v8l35 153q7 20 25 30.5t36 10.5q22 0 34.5 -9t12.5 -25
q0 -3 -0.5 -6.5t-0.5 -5.5z" />
    <glyph glyph-name="dagger" unicode="&#x2020;" horiz-adv-x="467" 
d="M298 408l-16 -374q-2 -39 -49 -39q-49 0 -49 39l-17 374h-110q-41 0 -41 36q0 35 41 35h103v101q0 51 74 51q72 0 72 -51v-101h105q40 0 40 -36q0 -35 -40 -35h-113z" />
    <glyph glyph-name="daggerdbl" unicode="&#x2021;" horiz-adv-x="484" 
d="M163 194l15 108l-16 106h-110q-43 0 -43 36q0 35 43 35h101v101q0 51 74 51q73 0 73 -51v-101h105q38 0 38 -36q0 -35 -38 -35h-114l-18 -106l18 -108h111q41 0 41 -37q0 -36 -41 -36h-100v-101q0 -51 -76 -51q-72 0 -72 51v101h-104q-41 0 -41 36q0 37 41 37h113z" />
    <glyph glyph-name="bullet" unicode="&#x2022;" horiz-adv-x="461" 
d="M374 211q0 -59 -87 -59h-106q-95 0 -95 59v95q0 63 94 63h106q88 0 88 -57v-101z" />
    <glyph glyph-name="ellipsis" unicode="&#x2026;" horiz-adv-x="744" 
d="M195 49q0 -48 -72 -48q-70 0 -70 48q0 45 70 45q72 0 72 -45zM443 49q0 -48 -72 -48q-70 0 -70 48q0 45 70 45q72 0 72 -45zM691 49q0 -48 -72 -48q-70 0 -70 48q0 45 70 45q72 0 72 -45z" />
    <glyph glyph-name="perthousand" unicode="&#x2030;" horiz-adv-x="1772" 
d="M1045 198q0 45 -105 45h-69q-119 0 -119 -53v-71q0 -47 119 -47h70q104 0 104 47v79zM1627 198q0 45 -104 45h-70q-119 0 -119 -53v-71q0 -47 119 -47h71q103 0 103 47v79zM431 515q0 41 -105 41h-71q-118 0 -118 -51v-73q0 -48 119 -48h73q102 0 102 48v83zM884 639
q13 13 30 13q12 0 23 -4.5t19.5 -11.5t14 -16t5.5 -18q0 -15 -9 -24l-649 -574q-14 -13 -27 -13q-11 0 -22 3.5t-21 10.5t-16 16t-6 20q0 13 10 23zM1724 120q0 -120 -217 -120h-40q-225 0 -225 120v69q0 123 231 123h34q217 0 217 -122v-70zM1142 120q0 -120 -220 -120h-36
q-227 0 -227 120v69q0 123 230 123h33q220 0 220 -122v-70zM527 434q0 -119 -220 -119h-36q-227 0 -227 119v68q0 125 230 125h33q220 0 220 -123v-70z" />
    <glyph glyph-name="guilsinglleft" unicode="&#x2039;" horiz-adv-x="356" 
d="M265 452q8 5 16 7t13 3q20 0 33 -13.5t13 -30.5q0 -11 -4 -18.5t-16 -14.5l-183 -110l183 -107q12 -7 16.5 -15.5t4.5 -19.5q0 -17 -15 -30t-35 -13q-13 0 -26 9l-231 144q-11 5 -15 12.5t-4 20.5q0 23 21 34z" />
    <glyph glyph-name="guilsinglright" unicode="&#x203a;" horiz-adv-x="359" 
d="M322 310q22 -10 22 -34q0 -20 -22 -33l-233 -144q-14 -9 -25 -9q-22 0 -35.5 12.5t-13.5 30.5q0 23 20 35l185 107l-185 110q-12 7 -15 16t-3 17q0 19 12.5 31t32.5 12q12 0 27 -9z" />
    <glyph glyph-name="fraction" unicode="&#x2044;" horiz-adv-x="210" 
d="M-216 -1q-15 -12 -31 -12q-46 0 -46 42q0 19 14 30l689 565q17 14 39 14q53 0 53 -42q0 -18 -17 -32z" />
    <glyph glyph-name="Euro" unicode="&#x20ac;" horiz-adv-x="971" 
d="M200 352v-88h399q34 0 34 -35q0 -33 -34 -33h-399v-36q0 -85 222 -85h487q35 0 35 -37q0 -38 -35 -38h-500q-313 0 -313 157v39h-37q-38 0 -38 34t38 34h37v88h-37q-38 0 -38 37q0 32 38 32h37v58q0 148 305 148h471q37 0 37 -38q0 -37 -37 -37h-468q-204 0 -204 -73v-58
h511q40 0 40 -35q0 -34 -40 -34h-511z" />
    <glyph glyph-name="trademark" unicode="&#x2122;" horiz-adv-x="995" 
d="M255 557v-279q0 -31 -41 -31q-44 0 -44 31v279h-76q-30 0 -30 32q0 30 30 30h233q28 0 28 -30q0 -32 -28 -32h-72zM931 278q0 -31 -42 -31q-39 0 -39 31v232l-115 -167q-9 -14 -24.5 -19.5t-33.5 -5.5q-37 0 -59 25l-110 165v-230q0 -31 -42 -31t-42 31v298q0 46 47 46
q32 0 58 -30l150 -200l150 206q16 24 53 24q49 0 49 -48v-296z" />
    <glyph glyph-name="minus" unicode="&#x2212;" horiz-adv-x="561" 
d="M74 227q-40 0 -40 33q0 35 40 35h417q35 0 35 -33q0 -35 -35 -35h-417z" />
    <glyph glyph-name="glyph353" horiz-adv-x="336" 
 />
    </font>
</defs>
</svg>
